999
ASTM D6673-10 pattern DXF (R12, Gerber dialect: empty HEADER, no TABLES, no layout blocks)
0
SECTION
2
HEADER
0
ENDSEC
0
SECTION
2
BLOCKS
0
BLOCK
8
0
2
CUP_PANEL_A
70
0
10
0.00
20
0.00
30
0.00
3
CUP_PANEL_A
0
TEXT
8
1
10
41.52
20
117.70
30
0.00
40
3.00
1
Piece Name: CUP_PANEL_A
0
TEXT
8
1
10
41.52
20
113.70
30
0.00
40
3.00
1
Quantity: 1,1
0
POLYLINE
8
1
66
1
70
1
10
0.00
20
0.00
30
0.00
0
VERTEX
8
1
10
62.90
20
0.00
30
0.00
0
VERTEX
8
1
10
64.13
20
1.24
30
0.00
0
VERTEX
8
1
10
65.37
20
2.47
30
0.00
0
VERTEX
8
1
10
66.61
20
3.72
30
0.00
0
VERTEX
8
1
10
67.83
20
4.97
30
0.00
0
VERTEX
8
1
10
69.06
20
6.22
30
0.00
0
VERTEX
8
1
10
70.03
20
7.78
30
0.00
0
VERTEX
8
1
10
71.01
20
9.35
30
0.00
0
VERTEX
8
1
10
71.97
20
10.91
30
0.00
0
VERTEX
8
1
10
72.94
20
12.49
30
0.00
0
VERTEX
8
1
10
73.89
20
14.04
30
0.00
0
VERTEX
8
1
10
74.83
20
15.59
30
0.00
0
VERTEX
8
1
10
75.77
20
17.15
30
0.00
0
VERTEX
8
1
10
76.71
20
18.72
30
0.00
0
VERTEX
8
1
10
77.65
20
20.29
30
0.00
0
VERTEX
8
1
10
78.42
20
22.03
30
0.00
0
VERTEX
8
1
10
79.13
20
23.79
30
0.00
0
VERTEX
8
1
10
79.84
20
25.55
30
0.00
0
VERTEX
8
1
10
80.55
20
27.32
30
0.00
0
VERTEX
8
1
10
80.73
20
29.01
30
0.00
0
VERTEX
8
1
10
80.91
20
30.70
30
0.00
0
VERTEX
8
1
10
81.09
20
32.40
30
0.00
0
VERTEX
8
1
10
81.27
20
34.09
30
0.00
0
VERTEX
8
1
10
81.61
20
35.79
30
0.00
0
VERTEX
8
1
10
81.94
20
37.49
30
0.00
0
VERTEX
8
1
10
82.28
20
39.18
30
0.00
0
VERTEX
8
1
10
82.61
20
40.88
30
0.00
0
VERTEX
8
1
10
82.72
20
42.66
30
0.00
0
VERTEX
8
1
10
82.82
20
44.43
30
0.00
0
VERTEX
8
1
10
82.93
20
46.20
30
0.00
0
VERTEX
8
1
10
83.03
20
47.98
30
0.00
0
VERTEX
8
1
10
82.50
20
49.89
30
0.00
0
VERTEX
8
1
10
81.97
20
51.81
30
0.00
0
VERTEX
8
1
10
81.44
20
53.72
30
0.00
0
VERTEX
8
1
10
80.92
20
55.62
30
0.00
0
VERTEX
8
1
10
80.33
20
57.56
30
0.00
0
VERTEX
8
1
10
80.24
20
59.48
30
0.00
0
VERTEX
8
1
10
80.13
20
61.41
30
0.00
0
VERTEX
8
1
10
79.96
20
63.34
30
0.00
0
VERTEX
8
1
10
79.68
20
64.87
30
0.00
0
VERTEX
8
1
10
79.39
20
66.40
30
0.00
0
VERTEX
8
1
10
79.11
20
67.94
30
0.00
0
VERTEX
8
1
10
78.81
20
69.47
30
0.00
0
VERTEX
8
1
10
78.27
20
71.10
30
0.00
0
VERTEX
8
1
10
77.74
20
72.73
30
0.00
0
VERTEX
8
1
10
77.20
20
74.36
30
0.00
0
VERTEX
8
1
10
76.65
20
75.98
30
0.00
0
VERTEX
8
1
10
75.92
20
77.45
30
0.00
0
VERTEX
8
1
10
75.19
20
78.91
30
0.00
0
VERTEX
8
1
10
74.47
20
80.37
30
0.00
0
VERTEX
8
1
10
73.73
20
81.83
30
0.00
0
VERTEX
8
1
10
72.68
20
83.25
30
0.00
0
VERTEX
8
1
10
71.64
20
84.67
30
0.00
0
VERTEX
8
1
10
70.59
20
86.10
30
0.00
0
VERTEX
8
1
10
69.52
20
87.50
30
0.00
0
VERTEX
8
1
10
68.28
20
88.73
30
0.00
0
VERTEX
8
1
10
67.05
20
89.95
30
0.00
0
VERTEX
8
1
10
65.81
20
91.17
30
0.00
0
VERTEX
8
1
10
64.55
20
92.37
30
0.00
0
VERTEX
8
1
10
63.23
20
93.31
30
0.00
0
VERTEX
8
1
10
61.91
20
94.24
30
0.00
0
VERTEX
8
1
10
60.59
20
95.17
30
0.00
0
VERTEX
8
1
10
59.25
20
96.08
30
0.00
0
VERTEX
8
1
10
57.78
20
96.81
30
0.00
0
VERTEX
8
1
10
56.32
20
97.54
30
0.00
0
VERTEX
8
1
10
54.86
20
98.27
30
0.00
0
VERTEX
8
1
10
53.38
20
98.98
30
0.00
0
VERTEX
8
1
10
51.62
20
99.52
30
0.00
0
VERTEX
8
1
10
49.86
20
100.06
30
0.00
0
VERTEX
8
1
10
48.09
20
100.57
30
0.00
0
VERTEX
8
1
10
46.31
20
101.02
30
0.00
0
VERTEX
8
1
10
44.53
20
101.49
30
0.00
0
VERTEX
8
1
10
42.75
20
101.96
30
0.00
0
VERTEX
8
1
10
40.98
20
102.39
30
0.00
0
VERTEX
8
1
10
39.14
20
102.92
30
0.00
0
VERTEX
8
1
10
37.30
20
103.45
30
0.00
0
VERTEX
8
1
10
35.24
20
103.84
30
0.00
0
VERTEX
8
1
10
33.38
20
104.23
30
0.00
0
VERTEX
8
1
10
31.67
20
104.62
30
0.00
0
VERTEX
8
1
10
29.95
20
104.99
30
0.00
0
VERTEX
8
1
10
28.24
20
105.34
30
0.00
0
VERTEX
8
1
10
26.53
20
105.70
30
0.00
0
VERTEX
8
1
10
24.68
20
105.67
30
0.00
0
VERTEX
8
1
10
22.83
20
105.62
30
0.00
0
VERTEX
8
1
10
20.97
20
105.57
30
0.00
0
VERTEX
8
1
10
19.09
20
104.78
30
0.00
0
VERTEX
8
1
10
17.26
20
103.90
30
0.00
0
VERTEX
8
1
10
15.43
20
103.02
30
0.00
0
VERTEX
8
1
10
13.52
20
102.75
30
0.00
0
VERTEX
8
1
10
11.63
20
102.46
30
0.00
0
VERTEX
8
1
10
9.75
20
102.16
30
0.00
0
VERTEX
8
1
10
7.87
20
101.86
30
0.00
0
VERTEX
8
1
10
6.28
20
101.49
30
0.00
0
VERTEX
8
1
10
4.71
20
101.10
30
0.00
0
VERTEX
8
1
10
3.14
20
100.72
30
0.00
0
VERTEX
8
1
10
1.57
20
100.33
30
0.00
0
VERTEX
8
1
10
0.00
20
99.95
30
0.00
0
VERTEX
8
1
10
0.45
20
98.42
30
0.00
0
VERTEX
8
1
10
0.92
20
96.90
30
0.00
0
VERTEX
8
1
10
1.38
20
95.38
30
0.00
0
VERTEX
8
1
10
1.85
20
93.86
30
0.00
0
VERTEX
8
1
10
2.44
20
92.16
30
0.00
0
VERTEX
8
1
10
3.07
20
90.46
30
0.00
0
VERTEX
8
1
10
3.69
20
88.77
30
0.00
0
VERTEX
8
1
10
4.30
20
87.10
30
0.00
0
VERTEX
8
1
10
4.89
20
85.32
30
0.00
0
VERTEX
8
1
10
5.55
20
83.57
30
0.00
0
VERTEX
8
1
10
6.21
20
81.81
30
0.00
0
VERTEX
8
1
10
6.87
20
80.05
30
0.00
0
VERTEX
8
1
10
7.66
20
78.28
30
0.00
0
VERTEX
8
1
10
8.45
20
76.52
30
0.00
0
VERTEX
8
1
10
9.24
20
74.75
30
0.00
0
VERTEX
8
1
10
10.02
20
73.00
30
0.00
0
VERTEX
8
1
10
10.91
20
71.18
30
0.00
0
VERTEX
8
1
10
11.83
20
69.35
30
0.00
0
VERTEX
8
1
10
12.76
20
67.53
30
0.00
0
VERTEX
8
1
10
13.70
20
65.72
30
0.00
0
VERTEX
8
1
10
14.48
20
64.11
30
0.00
0
VERTEX
8
1
10
15.26
20
62.49
30
0.00
0
VERTEX
8
1
10
16.04
20
60.87
30
0.00
0
VERTEX
8
1
10
16.83
20
59.25
30
0.00
0
VERTEX
8
1
10
17.65
20
57.77
30
0.00
0
VERTEX
8
1
10
18.52
20
56.32
30
0.00
0
VERTEX
8
1
10
19.39
20
54.87
30
0.00
0
VERTEX
8
1
10
20.29
20
53.37
30
0.00
0
VERTEX
8
1
10
21.14
20
51.79
30
0.00
0
VERTEX
8
1
10
22.01
20
50.21
30
0.00
0
VERTEX
8
1
10
22.91
20
48.63
30
0.00
0
VERTEX
8
1
10
23.85
20
47.09
30
0.00
0
VERTEX
8
1
10
24.88
20
45.38
30
0.00
0
VERTEX
8
1
10
25.98
20
43.67
30
0.00
0
VERTEX
8
1
10
27.09
20
41.99
30
0.00
0
VERTEX
8
1
10
28.20
20
40.35
30
0.00
0
VERTEX
8
1
10
29.29
20
38.78
30
0.00
0
VERTEX
8
1
10
30.39
20
37.22
30
0.00
0
VERTEX
8
1
10
31.55
20
35.69
30
0.00
0
VERTEX
8
1
10
32.70
20
34.16
30
0.00
0
VERTEX
8
1
10
33.90
20
32.53
30
0.00
0
VERTEX
8
1
10
35.14
20
30.92
30
0.00
0
VERTEX
8
1
10
36.42
20
29.36
30
0.00
0
VERTEX
8
1
10
37.70
20
27.80
30
0.00
0
VERTEX
8
1
10
38.96
20
26.31
30
0.00
0
VERTEX
8
1
10
40.24
20
24.86
30
0.00
0
VERTEX
8
1
10
41.53
20
23.40
30
0.00
0
VERTEX
8
1
10
42.82
20
21.95
30
0.00
0
VERTEX
8
1
10
43.92
20
20.74
30
0.00
0
VERTEX
8
1
10
45.02
20
19.53
30
0.00
0
VERTEX
8
1
10
46.12
20
18.33
30
0.00
0
VERTEX
8
1
10
47.22
20
17.12
30
0.00
0
VERTEX
8
1
10
48.34
20
15.93
30
0.00
0
VERTEX
8
1
10
49.61
20
14.53
30
0.00
0
VERTEX
8
1
10
50.88
20
13.15
30
0.00
0
VERTEX
8
1
10
52.15
20
11.77
30
0.00
0
VERTEX
8
1
10
53.45
20
10.37
30
0.00
0
VERTEX
8
1
10
54.66
20
9.07
30
0.00
0
VERTEX
8
1
10
55.87
20
7.76
30
0.00
0
VERTEX
8
1
10
57.08
20
6.46
30
0.00
0
VERTEX
8
1
10
58.29
20
5.15
30
0.00
0
VERTEX
8
1
10
59.45
20
3.86
30
0.00
0
VERTEX
8
1
10
60.60
20
2.58
30
0.00
0
VERTEX
8
1
10
61.75
20
1.29
30
0.00
0
SEQEND
8
1
0
POLYLINE
8
84
66
1
70
1
10
0.00
20
0.00
30
0.00
0
VERTEX
8
84
10
62.90
20
0.00
30
0.00
0
VERTEX
8
84
10
64.13
20
1.24
30
0.00
0
VERTEX
8
84
10
65.37
20
2.47
30
0.00
0
VERTEX
8
84
10
66.61
20
3.72
30
0.00
0
VERTEX
8
84
10
67.83
20
4.97
30
0.00
0
VERTEX
8
84
10
69.06
20
6.22
30
0.00
0
VERTEX
8
84
10
70.03
20
7.78
30
0.00
0
VERTEX
8
84
10
71.01
20
9.35
30
0.00
0
VERTEX
8
84
10
71.97
20
10.91
30
0.00
0
VERTEX
8
84
10
72.94
20
12.49
30
0.00
0
VERTEX
8
84
10
73.89
20
14.04
30
0.00
0
VERTEX
8
84
10
74.83
20
15.59
30
0.00
0
VERTEX
8
84
10
75.77
20
17.15
30
0.00
0
VERTEX
8
84
10
76.71
20
18.72
30
0.00
0
VERTEX
8
84
10
77.65
20
20.29
30
0.00
0
VERTEX
8
84
10
78.42
20
22.03
30
0.00
0
VERTEX
8
84
10
79.13
20
23.79
30
0.00
0
VERTEX
8
84
10
79.84
20
25.55
30
0.00
0
VERTEX
8
84
10
80.55
20
27.32
30
0.00
0
VERTEX
8
84
10
80.73
20
29.01
30
0.00
0
VERTEX
8
84
10
80.91
20
30.70
30
0.00
0
VERTEX
8
84
10
81.09
20
32.40
30
0.00
0
VERTEX
8
84
10
81.27
20
34.09
30
0.00
0
VERTEX
8
84
10
81.61
20
35.79
30
0.00
0
VERTEX
8
84
10
81.94
20
37.49
30
0.00
0
VERTEX
8
84
10
82.28
20
39.18
30
0.00
0
VERTEX
8
84
10
82.61
20
40.88
30
0.00
0
VERTEX
8
84
10
82.72
20
42.66
30
0.00
0
VERTEX
8
84
10
82.82
20
44.43
30
0.00
0
VERTEX
8
84
10
82.93
20
46.20
30
0.00
0
VERTEX
8
84
10
83.03
20
47.98
30
0.00
0
VERTEX
8
84
10
82.50
20
49.89
30
0.00
0
VERTEX
8
84
10
81.97
20
51.81
30
0.00
0
VERTEX
8
84
10
81.44
20
53.72
30
0.00
0
VERTEX
8
84
10
80.92
20
55.62
30
0.00
0
VERTEX
8
84
10
80.33
20
57.56
30
0.00
0
VERTEX
8
84
10
80.24
20
59.48
30
0.00
0
VERTEX
8
84
10
80.13
20
61.41
30
0.00
0
VERTEX
8
84
10
79.96
20
63.34
30
0.00
0
VERTEX
8
84
10
79.68
20
64.87
30
0.00
0
VERTEX
8
84
10
79.39
20
66.40
30
0.00
0
VERTEX
8
84
10
79.11
20
67.94
30
0.00
0
VERTEX
8
84
10
78.81
20
69.47
30
0.00
0
VERTEX
8
84
10
78.27
20
71.10
30
0.00
0
VERTEX
8
84
10
77.74
20
72.73
30
0.00
0
VERTEX
8
84
10
77.20
20
74.36
30
0.00
0
VERTEX
8
84
10
76.65
20
75.98
30
0.00
0
VERTEX
8
84
10
75.92
20
77.45
30
0.00
0
VERTEX
8
84
10
75.19
20
78.91
30
0.00
0
VERTEX
8
84
10
74.47
20
80.37
30
0.00
0
VERTEX
8
84
10
73.73
20
81.83
30
0.00
0
VERTEX
8
84
10
72.68
20
83.25
30
0.00
0
VERTEX
8
84
10
71.64
20
84.67
30
0.00
0
VERTEX
8
84
10
70.59
20
86.10
30
0.00
0
VERTEX
8
84
10
69.52
20
87.50
30
0.00
0
VERTEX
8
84
10
68.28
20
88.73
30
0.00
0
VERTEX
8
84
10
67.05
20
89.95
30
0.00
0
VERTEX
8
84
10
65.81
20
91.17
30
0.00
0
VERTEX
8
84
10
64.55
20
92.37
30
0.00
0
VERTEX
8
84
10
63.23
20
93.31
30
0.00
0
VERTEX
8
84
10
61.91
20
94.24
30
0.00
0
VERTEX
8
84
10
60.59
20
95.17
30
0.00
0
VERTEX
8
84
10
59.25
20
96.08
30
0.00
0
VERTEX
8
84
10
57.78
20
96.81
30
0.00
0
VERTEX
8
84
10
56.32
20
97.54
30
0.00
0
VERTEX
8
84
10
54.86
20
98.27
30
0.00
0
VERTEX
8
84
10
53.38
20
98.98
30
0.00
0
VERTEX
8
84
10
51.62
20
99.52
30
0.00
0
VERTEX
8
84
10
49.86
20
100.06
30
0.00
0
VERTEX
8
84
10
48.09
20
100.57
30
0.00
0
VERTEX
8
84
10
46.31
20
101.02
30
0.00
0
VERTEX
8
84
10
44.53
20
101.49
30
0.00
0
VERTEX
8
84
10
42.75
20
101.96
30
0.00
0
VERTEX
8
84
10
40.98
20
102.39
30
0.00
0
VERTEX
8
84
10
39.14
20
102.92
30
0.00
0
VERTEX
8
84
10
37.30
20
103.45
30
0.00
0
VERTEX
8
84
10
35.24
20
103.84
30
0.00
0
VERTEX
8
84
10
33.38
20
104.23
30
0.00
0
VERTEX
8
84
10
31.67
20
104.62
30
0.00
0
VERTEX
8
84
10
29.95
20
104.99
30
0.00
0
VERTEX
8
84
10
28.24
20
105.34
30
0.00
0
VERTEX
8
84
10
26.53
20
105.70
30
0.00
0
VERTEX
8
84
10
24.68
20
105.67
30
0.00
0
VERTEX
8
84
10
22.83
20
105.62
30
0.00
0
VERTEX
8
84
10
20.97
20
105.57
30
0.00
0
VERTEX
8
84
10
19.09
20
104.78
30
0.00
0
VERTEX
8
84
10
17.26
20
103.90
30
0.00
0
VERTEX
8
84
10
15.43
20
103.02
30
0.00
0
VERTEX
8
84
10
13.52
20
102.75
30
0.00
0
VERTEX
8
84
10
11.63
20
102.46
30
0.00
0
VERTEX
8
84
10
9.75
20
102.16
30
0.00
0
VERTEX
8
84
10
7.87
20
101.86
30
0.00
0
VERTEX
8
84
10
6.28
20
101.49
30
0.00
0
VERTEX
8
84
10
4.71
20
101.10
30
0.00
0
VERTEX
8
84
10
3.14
20
100.72
30
0.00
0
VERTEX
8
84
10
1.57
20
100.33
30
0.00
0
VERTEX
8
84
10
0.00
20
99.95
30
0.00
0
VERTEX
8
84
10
0.45
20
98.42
30
0.00
0
VERTEX
8
84
10
0.92
20
96.90
30
0.00
0
VERTEX
8
84
10
1.38
20
95.38
30
0.00
0
VERTEX
8
84
10
1.85
20
93.86
30
0.00
0
VERTEX
8
84
10
2.44
20
92.16
30
0.00
0
VERTEX
8
84
10
3.07
20
90.46
30
0.00
0
VERTEX
8
84
10
3.69
20
88.77
30
0.00
0
VERTEX
8
84
10
4.30
20
87.10
30
0.00
0
VERTEX
8
84
10
4.89
20
85.32
30
0.00
0
VERTEX
8
84
10
5.55
20
83.57
30
0.00
0
VERTEX
8
84
10
6.21
20
81.81
30
0.00
0
VERTEX
8
84
10
6.87
20
80.05
30
0.00
0
VERTEX
8
84
10
7.66
20
78.28
30
0.00
0
VERTEX
8
84
10
8.45
20
76.52
30
0.00
0
VERTEX
8
84
10
9.24
20
74.75
30
0.00
0
VERTEX
8
84
10
10.02
20
73.00
30
0.00
0
VERTEX
8
84
10
10.91
20
71.18
30
0.00
0
VERTEX
8
84
10
11.83
20
69.35
30
0.00
0
VERTEX
8
84
10
12.76
20
67.53
30
0.00
0
VERTEX
8
84
10
13.70
20
65.72
30
0.00
0
VERTEX
8
84
10
14.48
20
64.11
30
0.00
0
VERTEX
8
84
10
15.26
20
62.49
30
0.00
0
VERTEX
8
84
10
16.04
20
60.87
30
0.00
0
VERTEX
8
84
10
16.83
20
59.25
30
0.00
0
VERTEX
8
84
10
17.65
20
57.77
30
0.00
0
VERTEX
8
84
10
18.52
20
56.32
30
0.00
0
VERTEX
8
84
10
19.39
20
54.87
30
0.00
0
VERTEX
8
84
10
20.29
20
53.37
30
0.00
0
VERTEX
8
84
10
21.14
20
51.79
30
0.00
0
VERTEX
8
84
10
22.01
20
50.21
30
0.00
0
VERTEX
8
84
10
22.91
20
48.63
30
0.00
0
VERTEX
8
84
10
23.85
20
47.09
30
0.00
0
VERTEX
8
84
10
24.88
20
45.38
30
0.00
0
VERTEX
8
84
10
25.98
20
43.67
30
0.00
0
VERTEX
8
84
10
27.09
20
41.99
30
0.00
0
VERTEX
8
84
10
28.20
20
40.35
30
0.00
0
VERTEX
8
84
10
29.29
20
38.78
30
0.00
0
VERTEX
8
84
10
30.39
20
37.22
30
0.00
0
VERTEX
8
84
10
31.55
20
35.69
30
0.00
0
VERTEX
8
84
10
32.70
20
34.16
30
0.00
0
VERTEX
8
84
10
33.90
20
32.53
30
0.00
0
VERTEX
8
84
10
35.14
20
30.92
30
0.00
0
VERTEX
8
84
10
36.42
20
29.36
30
0.00
0
VERTEX
8
84
10
37.70
20
27.80
30
0.00
0
VERTEX
8
84
10
38.96
20
26.31
30
0.00
0
VERTEX
8
84
10
40.24
20
24.86
30
0.00
0
VERTEX
8
84
10
41.53
20
23.40
30
0.00
0
VERTEX
8
84
10
42.82
20
21.95
30
0.00
0
VERTEX
8
84
10
43.92
20
20.74
30
0.00
0
VERTEX
8
84
10
45.02
20
19.53
30
0.00
0
VERTEX
8
84
10
46.12
20
18.33
30
0.00
0
VERTEX
8
84
10
47.22
20
17.12
30
0.00
0
VERTEX
8
84
10
48.34
20
15.93
30
0.00
0
VERTEX
8
84
10
49.61
20
14.53
30
0.00
0
VERTEX
8
84
10
50.88
20
13.15
30
0.00
0
VERTEX
8
84
10
52.15
20
11.77
30
0.00
0
VERTEX
8
84
10
53.45
20
10.37
30
0.00
0
VERTEX
8
84
10
54.66
20
9.07
30
0.00
0
VERTEX
8
84
10
55.87
20
7.76
30
0.00
0
VERTEX
8
84
10
57.08
20
6.46
30
0.00
0
VERTEX
8
84
10
58.29
20
5.15
30
0.00
0
VERTEX
8
84
10
59.45
20
3.86
30
0.00
0
VERTEX
8
84
10
60.60
20
2.58
30
0.00
0
VERTEX
8
84
10
61.75
20
1.29
30
0.00
0
SEQEND
8
84
0
POINT
8
2
10
62.90
20
0.00
30
0.00
0
POINT
8
3
10
64.13
20
1.24
30
0.00
0
POINT
8
3
10
65.37
20
2.47
30
0.00
0
POINT
8
3
10
66.61
20
3.72
30
0.00
0
POINT
8
3
10
67.83
20
4.97
30
0.00
0
POINT
8
3
10
69.06
20
6.22
30
0.00
0
POINT
8
3
10
70.03
20
7.78
30
0.00
0
POINT
8
3
10
71.01
20
9.35
30
0.00
0
POINT
8
3
10
71.97
20
10.91
30
0.00
0
POINT
8
3
10
72.94
20
12.49
30
0.00
0
POINT
8
3
10
73.89
20
14.04
30
0.00
0
POINT
8
3
10
74.83
20
15.59
30
0.00
0
POINT
8
3
10
75.77
20
17.15
30
0.00
0
POINT
8
3
10
76.71
20
18.72
30
0.00
0
POINT
8
3
10
77.65
20
20.29
30
0.00
0
POINT
8
3
10
78.42
20
22.03
30
0.00
0
POINT
8
3
10
79.13
20
23.79
30
0.00
0
POINT
8
3
10
79.84
20
25.55
30
0.00
0
POINT
8
3
10
80.55
20
27.32
30
0.00
0
POINT
8
3
10
80.73
20
29.01
30
0.00
0
POINT
8
3
10
80.91
20
30.70
30
0.00
0
POINT
8
3
10
81.09
20
32.40
30
0.00
0
POINT
8
3
10
81.27
20
34.09
30
0.00
0
POINT
8
3
10
81.61
20
35.79
30
0.00
0
POINT
8
3
10
81.94
20
37.49
30
0.00
0
POINT
8
3
10
82.28
20
39.18
30
0.00
0
POINT
8
3
10
82.61
20
40.88
30
0.00
0
POINT
8
3
10
82.72
20
42.66
30
0.00
0
POINT
8
3
10
82.82
20
44.43
30
0.00
0
POINT
8
3
10
82.93
20
46.20
30
0.00
0
POINT
8
3
10
83.03
20
47.98
30
0.00
0
POINT
8
3
10
82.50
20
49.89
30
0.00
0
POINT
8
3
10
81.97
20
51.81
30
0.00
0
POINT
8
3
10
81.44
20
53.72
30
0.00
0
POINT
8
3
10
80.92
20
55.62
30
0.00
0
POINT
8
3
10
80.33
20
57.56
30
0.00
0
POINT
8
3
10
80.24
20
59.48
30
0.00
0
POINT
8
3
10
80.13
20
61.41
30
0.00
0
POINT
8
3
10
79.96
20
63.34
30
0.00
0
POINT
8
3
10
79.68
20
64.87
30
0.00
0
POINT
8
3
10
79.39
20
66.40
30
0.00
0
POINT
8
3
10
79.11
20
67.94
30
0.00
0
POINT
8
3
10
78.81
20
69.47
30
0.00
0
POINT
8
3
10
78.27
20
71.10
30
0.00
0
POINT
8
3
10
77.74
20
72.73
30
0.00
0
POINT
8
3
10
77.20
20
74.36
30
0.00
0
POINT
8
3
10
76.65
20
75.98
30
0.00
0
POINT
8
3
10
75.92
20
77.45
30
0.00
0
POINT
8
3
10
75.19
20
78.91
30
0.00
0
POINT
8
3
10
74.47
20
80.37
30
0.00
0
POINT
8
3
10
73.73
20
81.83
30
0.00
0
POINT
8
3
10
72.68
20
83.25
30
0.00
0
POINT
8
3
10
71.64
20
84.67
30
0.00
0
POINT
8
3
10
70.59
20
86.10
30
0.00
0
POINT
8
3
10
69.52
20
87.50
30
0.00
0
POINT
8
3
10
68.28
20
88.73
30
0.00
0
POINT
8
3
10
67.05
20
89.95
30
0.00
0
POINT
8
3
10
65.81
20
91.17
30
0.00
0
POINT
8
3
10
64.55
20
92.37
30
0.00
0
POINT
8
3
10
63.23
20
93.31
30
0.00
0
POINT
8
3
10
61.91
20
94.24
30
0.00
0
POINT
8
3
10
60.59
20
95.17
30
0.00
0
POINT
8
3
10
59.25
20
96.08
30
0.00
0
POINT
8
3
10
57.78
20
96.81
30
0.00
0
POINT
8
3
10
56.32
20
97.54
30
0.00
0
POINT
8
3
10
54.86
20
98.27
30
0.00
0
POINT
8
3
10
53.38
20
98.98
30
0.00
0
POINT
8
3
10
51.62
20
99.52
30
0.00
0
POINT
8
3
10
49.86
20
100.06
30
0.00
0
POINT
8
3
10
48.09
20
100.57
30
0.00
0
POINT
8
3
10
46.31
20
101.02
30
0.00
0
POINT
8
3
10
44.53
20
101.49
30
0.00
0
POINT
8
3
10
42.75
20
101.96
30
0.00
0
POINT
8
3
10
40.98
20
102.39
30
0.00
0
POINT
8
3
10
39.14
20
102.92
30
0.00
0
POINT
8
3
10
37.30
20
103.45
30
0.00
0
POINT
8
3
10
35.24
20
103.84
30
0.00
0
POINT
8
3
10
33.38
20
104.23
30
0.00
0
POINT
8
3
10
31.67
20
104.62
30
0.00
0
POINT
8
3
10
29.95
20
104.99
30
0.00
0
POINT
8
3
10
28.24
20
105.34
30
0.00
0
POINT
8
3
10
26.53
20
105.70
30
0.00
0
POINT
8
3
10
24.68
20
105.67
30
0.00
0
POINT
8
3
10
22.83
20
105.62
30
0.00
0
POINT
8
3
10
20.97
20
105.57
30
0.00
0
POINT
8
3
10
19.09
20
104.78
30
0.00
0
POINT
8
3
10
17.26
20
103.90
30
0.00
0
POINT
8
3
10
15.43
20
103.02
30
0.00
0
POINT
8
3
10
13.52
20
102.75
30
0.00
0
POINT
8
3
10
11.63
20
102.46
30
0.00
0
POINT
8
3
10
9.75
20
102.16
30
0.00
0
POINT
8
3
10
7.87
20
101.86
30
0.00
0
POINT
8
3
10
6.28
20
101.49
30
0.00
0
POINT
8
3
10
4.71
20
101.10
30
0.00
0
POINT
8
3
10
3.14
20
100.72
30
0.00
0
POINT
8
3
10
1.57
20
100.33
30
0.00
0
POINT
8
2
10
0.00
20
99.95
30
0.00
0
POINT
8
3
10
0.45
20
98.42
30
0.00
0
POINT
8
3
10
0.92
20
96.90
30
0.00
0
POINT
8
3
10
1.38
20
95.38
30
0.00
0
POINT
8
3
10
1.85
20
93.86
30
0.00
0
POINT
8
3
10
2.44
20
92.16
30
0.00
0
POINT
8
3
10
3.07
20
90.46
30
0.00
0
POINT
8
3
10
3.69
20
88.77
30
0.00
0
POINT
8
3
10
4.30
20
87.10
30
0.00
0
POINT
8
3
10
4.89
20
85.32
30
0.00
0
POINT
8
3
10
5.55
20
83.57
30
0.00
0
POINT
8
3
10
6.21
20
81.81
30
0.00
0
POINT
8
3
10
6.87
20
80.05
30
0.00
0
POINT
8
3
10
7.66
20
78.28
30
0.00
0
POINT
8
3
10
8.45
20
76.52
30
0.00
0
POINT
8
3
10
9.24
20
74.75
30
0.00
0
POINT
8
3
10
10.02
20
73.00
30
0.00
0
POINT
8
3
10
10.91
20
71.18
30
0.00
0
POINT
8
3
10
11.83
20
69.35
30
0.00
0
POINT
8
3
10
12.76
20
67.53
30
0.00
0
POINT
8
3
10
13.70
20
65.72
30
0.00
0
POINT
8
3
10
14.48
20
64.11
30
0.00
0
POINT
8
3
10
15.26
20
62.49
30
0.00
0
POINT
8
3
10
16.04
20
60.87
30
0.00
0
POINT
8
3
10
16.83
20
59.25
30
0.00
0
POINT
8
3
10
17.65
20
57.77
30
0.00
0
POINT
8
3
10
18.52
20
56.32
30
0.00
0
POINT
8
3
10
19.39
20
54.87
30
0.00
0
POINT
8
3
10
20.29
20
53.37
30
0.00
0
POINT
8
3
10
21.14
20
51.79
30
0.00
0
POINT
8
3
10
22.01
20
50.21
30
0.00
0
POINT
8
3
10
22.91
20
48.63
30
0.00
0
POINT
8
3
10
23.85
20
47.09
30
0.00
0
POINT
8
3
10
24.88
20
45.38
30
0.00
0
POINT
8
3
10
25.98
20
43.67
30
0.00
0
POINT
8
3
10
27.09
20
41.99
30
0.00
0
POINT
8
3
10
28.20
20
40.35
30
0.00
0
POINT
8
3
10
29.29
20
38.78
30
0.00
0
POINT
8
3
10
30.39
20
37.22
30
0.00
0
POINT
8
3
10
31.55
20
35.69
30
0.00
0
POINT
8
3
10
32.70
20
34.16
30
0.00
0
POINT
8
3
10
33.90
20
32.53
30
0.00
0
POINT
8
3
10
35.14
20
30.92
30
0.00
0
POINT
8
3
10
36.42
20
29.36
30
0.00
0
POINT
8
3
10
37.70
20
27.80
30
0.00
0
POINT
8
3
10
38.96
20
26.31
30
0.00
0
POINT
8
3
10
40.24
20
24.86
30
0.00
0
POINT
8
3
10
41.53
20
23.40
30
0.00
0
POINT
8
3
10
42.82
20
21.95
30
0.00
0
POINT
8
3
10
43.92
20
20.74
30
0.00
0
POINT
8
3
10
45.02
20
19.53
30
0.00
0
POINT
8
3
10
46.12
20
18.33
30
0.00
0
POINT
8
3
10
47.22
20
17.12
30
0.00
0
POINT
8
3
10
48.34
20
15.93
30
0.00
0
POINT
8
3
10
49.61
20
14.53
30
0.00
0
POINT
8
3
10
50.88
20
13.15
30
0.00
0
POINT
8
3
10
52.15
20
11.77
30
0.00
0
POINT
8
3
10
53.45
20
10.37
30
0.00
0
POINT
8
3
10
54.66
20
9.07
30
0.00
0
POINT
8
3
10
55.87
20
7.76
30
0.00
0
POINT
8
3
10
57.08
20
6.46
30
0.00
0
POINT
8
3
10
58.29
20
5.15
30
0.00
0
POINT
8
3
10
59.45
20
3.86
30
0.00
0
POINT
8
3
10
60.60
20
2.58
30
0.00
0
POINT
8
3
10
61.75
20
1.29
30
0.00
0
LINE
8
7
10
27.14
20
89.78
30
0.00
11
65.45
21
29.79
31
0.00
0
TEXT
8
15
10
4.15
20
66.85
30
0.00
40
5.00
1
SHELL 1:1 OF THE BODY SURFACE - NOT A PATTERN
0
TEXT
8
15
10
4.15
20
62.85
30
0.00
40
5.00
1
No ease, no seam allowance, no grading
0
TEXT
8
15
10
4.15
20
58.85
30
0.00
40
5.00
1
Seam vs body: +7.17 mm (curvature, not error)
0
TEXT
8
15
10
4.15
20
54.85
30
0.00
40
5.00
1
Grain: default = body vertical, set by pattern maker
0
TEXT
8
15
10
4.15
20
50.85
30
0.00
40
5.00
1
Quantity 1,1 is a default, confirm
0
TEXT
8
15
10
4.15
20
46.85
30
0.00
40
5.00
1
Asset avatar_master.glb 0caa604bab35
0
TEXT
8
15
10
4.15
20
42.85
30
0.00
40
5.00
1
Shares seam with CUP_PANEL_B: mismatch 0.55 mm
0
ENDBLK
8
0
0
BLOCK
8
0
2
CUP_PANEL_B
70
0
10
0.00
20
0.00
30
0.00
3
CUP_PANEL_B
0
TEXT
8
1
10
33.22
20
128.15
30
0.00
40
3.00
1
Piece Name: CUP_PANEL_B
0
TEXT
8
1
10
33.22
20
124.15
30
0.00
40
3.00
1
Quantity: 1,1
0
POLYLINE
8
1
66
1
70
1
10
0.00
20
0.00
30
0.00
0
VERTEX
8
1
10
62.80
20
115.86
30
0.00
0
VERTEX
8
1
10
61.07
20
115.99
30
0.00
0
VERTEX
8
1
10
59.32
20
116.15
30
0.00
0
VERTEX
8
1
10
57.52
20
116.12
30
0.00
0
VERTEX
8
1
10
55.72
20
116.08
30
0.00
0
VERTEX
8
1
10
53.92
20
116.04
30
0.00
0
VERTEX
8
1
10
52.20
20
115.64
30
0.00
0
VERTEX
8
1
10
50.48
20
115.24
30
0.00
0
VERTEX
8
1
10
48.74
20
114.83
30
0.00
0
VERTEX
8
1
10
47.00
20
114.42
30
0.00
0
VERTEX
8
1
10
45.26
20
114.01
30
0.00
0
VERTEX
8
1
10
43.48
20
113.44
30
0.00
0
VERTEX
8
1
10
41.67
20
112.85
30
0.00
0
VERTEX
8
1
10
39.86
20
112.26
30
0.00
0
VERTEX
8
1
10
38.05
20
111.67
30
0.00
0
VERTEX
8
1
10
36.24
20
111.08
30
0.00
0
VERTEX
8
1
10
34.54
20
110.69
30
0.00
0
VERTEX
8
1
10
32.87
20
110.28
30
0.00
0
VERTEX
8
1
10
31.20
20
109.86
30
0.00
0
VERTEX
8
1
10
29.53
20
109.45
30
0.00
0
VERTEX
8
1
10
27.96
20
108.86
30
0.00
0
VERTEX
8
1
10
26.42
20
108.26
30
0.00
0
VERTEX
8
1
10
24.87
20
107.66
30
0.00
0
VERTEX
8
1
10
23.32
20
107.06
30
0.00
0
VERTEX
8
1
10
21.77
20
106.46
30
0.00
0
VERTEX
8
1
10
20.23
20
105.45
30
0.00
0
VERTEX
8
1
10
18.70
20
104.44
30
0.00
0
VERTEX
8
1
10
17.17
20
103.43
30
0.00
0
VERTEX
8
1
10
15.63
20
102.42
30
0.00
0
VERTEX
8
1
10
14.09
20
101.40
30
0.00
0
VERTEX
8
1
10
13.00
20
100.42
30
0.00
0
VERTEX
8
1
10
11.91
20
99.41
30
0.00
0
VERTEX
8
1
10
10.84
20
98.40
30
0.00
0
VERTEX
8
1
10
9.60
20
97.01
30
0.00
0
VERTEX
8
1
10
8.35
20
95.62
30
0.00
0
VERTEX
8
1
10
7.11
20
94.23
30
0.00
0
VERTEX
8
1
10
5.87
20
92.83
30
0.00
0
VERTEX
8
1
10
5.07
20
91.12
30
0.00
0
VERTEX
8
1
10
4.27
20
89.41
30
0.00
0
VERTEX
8
1
10
3.46
20
87.70
30
0.00
0
VERTEX
8
1
10
2.66
20
85.98
30
0.00
0
VERTEX
8
1
10
2.44
20
84.25
30
0.00
0
VERTEX
8
1
10
2.22
20
82.51
30
0.00
0
VERTEX
8
1
10
2.08
20
80.79
30
0.00
0
VERTEX
8
1
10
1.67
20
79.00
30
0.00
0
VERTEX
8
1
10
1.26
20
77.22
30
0.00
0
VERTEX
8
1
10
0.85
20
75.44
30
0.00
0
VERTEX
8
1
10
0.43
20
73.66
30
0.00
0
VERTEX
8
1
10
0.02
20
71.88
30
0.00
0
VERTEX
8
1
10
0.07
20
70.07
30
0.00
0
VERTEX
8
1
10
0.11
20
68.27
30
0.00
0
VERTEX
8
1
10
0.15
20
66.47
30
0.00
0
VERTEX
8
1
10
0.20
20
64.66
30
0.00
0
VERTEX
8
1
10
0.17
20
62.91
30
0.00
0
VERTEX
8
1
10
0.15
20
61.14
30
0.00
0
VERTEX
8
1
10
0.17
20
59.38
30
0.00
0
VERTEX
8
1
10
0.19
20
57.63
30
0.00
0
VERTEX
8
1
10
0.13
20
55.90
30
0.00
0
VERTEX
8
1
10
0.07
20
54.18
30
0.00
0
VERTEX
8
1
10
0.02
20
52.46
30
0.00
0
VERTEX
8
1
10
0.00
20
50.75
30
0.00
0
VERTEX
8
1
10
0.52
20
49.16
30
0.00
0
VERTEX
8
1
10
1.04
20
47.56
30
0.00
0
VERTEX
8
1
10
1.56
20
45.97
30
0.00
0
VERTEX
8
1
10
2.08
20
44.38
30
0.00
0
VERTEX
8
1
10
2.61
20
42.78
30
0.00
0
VERTEX
8
1
10
3.03
20
41.17
30
0.00
0
VERTEX
8
1
10
3.45
20
39.56
30
0.00
0
VERTEX
8
1
10
3.88
20
37.95
30
0.00
0
VERTEX
8
1
10
4.30
20
36.35
30
0.00
0
VERTEX
8
1
10
4.72
20
34.74
30
0.00
0
VERTEX
8
1
10
5.87
20
33.21
30
0.00
0
VERTEX
8
1
10
7.01
20
31.67
30
0.00
0
VERTEX
8
1
10
8.15
20
30.14
30
0.00
0
VERTEX
8
1
10
9.30
20
28.61
30
0.00
0
VERTEX
8
1
10
10.13
20
27.06
30
0.00
0
VERTEX
8
1
10
10.97
20
25.51
30
0.00
0
VERTEX
8
1
10
11.82
20
23.98
30
0.00
0
VERTEX
8
1
10
12.68
20
22.45
30
0.00
0
VERTEX
8
1
10
13.86
20
21.19
30
0.00
0
VERTEX
8
1
10
15.04
20
19.94
30
0.00
0
VERTEX
8
1
10
16.23
20
18.69
30
0.00
0
VERTEX
8
1
10
17.41
20
17.46
30
0.00
0
VERTEX
8
1
10
18.61
20
16.24
30
0.00
0
VERTEX
8
1
10
19.94
20
15.25
30
0.00
0
VERTEX
8
1
10
21.27
20
14.25
30
0.00
0
VERTEX
8
1
10
22.60
20
13.26
30
0.00
0
VERTEX
8
1
10
23.94
20
12.29
30
0.00
0
VERTEX
8
1
10
25.27
20
11.33
30
0.00
0
VERTEX
8
1
10
26.83
20
10.44
30
0.00
0
VERTEX
8
1
10
28.38
20
9.56
30
0.00
0
VERTEX
8
1
10
29.94
20
8.68
30
0.00
0
VERTEX
8
1
10
31.49
20
7.82
30
0.00
0
VERTEX
8
1
10
33.04
20
6.95
30
0.00
0
VERTEX
8
1
10
34.81
20
6.16
30
0.00
0
VERTEX
8
1
10
36.57
20
5.37
30
0.00
0
VERTEX
8
1
10
38.34
20
4.58
30
0.00
0
VERTEX
8
1
10
40.11
20
3.78
30
0.00
0
VERTEX
8
1
10
41.53
20
3.03
30
0.00
0
VERTEX
8
1
10
42.94
20
2.27
30
0.00
0
VERTEX
8
1
10
44.36
20
1.52
30
0.00
0
VERTEX
8
1
10
45.78
20
0.77
30
0.00
0
VERTEX
8
1
10
47.19
20
0.00
30
0.00
0
VERTEX
8
1
10
47.82
20
1.60
30
0.00
0
VERTEX
8
1
10
48.46
20
3.19
30
0.00
0
VERTEX
8
1
10
49.09
20
4.79
30
0.00
0
VERTEX
8
1
10
49.73
20
6.39
30
0.00
0
VERTEX
8
1
10
50.35
20
8.05
30
0.00
0
VERTEX
8
1
10
50.98
20
9.71
30
0.00
0
VERTEX
8
1
10
51.60
20
11.37
30
0.00
0
VERTEX
8
1
10
52.22
20
13.02
30
0.00
0
VERTEX
8
1
10
52.84
20
14.78
30
0.00
0
VERTEX
8
1
10
53.45
20
16.55
30
0.00
0
VERTEX
8
1
10
54.06
20
18.32
30
0.00
0
VERTEX
8
1
10
54.67
20
20.10
30
0.00
0
VERTEX
8
1
10
55.17
20
21.65
30
0.00
0
VERTEX
8
1
10
55.67
20
23.19
30
0.00
0
VERTEX
8
1
10
56.16
20
24.74
30
0.00
0
VERTEX
8
1
10
56.65
20
26.29
30
0.00
0
VERTEX
8
1
10
57.12
20
27.83
30
0.00
0
VERTEX
8
1
10
57.71
20
29.67
30
0.00
0
VERTEX
8
1
10
58.30
20
31.51
30
0.00
0
VERTEX
8
1
10
58.90
20
33.36
30
0.00
0
VERTEX
8
1
10
59.43
20
35.21
30
0.00
0
VERTEX
8
1
10
60.01
20
37.13
30
0.00
0
VERTEX
8
1
10
60.59
20
39.04
30
0.00
0
VERTEX
8
1
10
61.14
20
41.01
30
0.00
0
VERTEX
8
1
10
61.66
20
42.95
30
0.00
0
VERTEX
8
1
10
62.13
20
44.78
30
0.00
0
VERTEX
8
1
10
62.59
20
46.60
30
0.00
0
VERTEX
8
1
10
63.04
20
48.45
30
0.00
0
VERTEX
8
1
10
63.47
20
50.29
30
0.00
0
VERTEX
8
1
10
63.91
20
52.21
30
0.00
0
VERTEX
8
1
10
64.33
20
54.16
30
0.00
0
VERTEX
8
1
10
64.71
20
56.11
30
0.00
0
VERTEX
8
1
10
65.06
20
58.06
30
0.00
0
VERTEX
8
1
10
65.36
20
59.82
30
0.00
0
VERTEX
8
1
10
65.60
20
61.60
30
0.00
0
VERTEX
8
1
10
65.82
20
63.37
30
0.00
0
VERTEX
8
1
10
66.04
20
65.13
30
0.00
0
VERTEX
8
1
10
66.10
20
66.81
30
0.00
0
VERTEX
8
1
10
66.15
20
68.48
30
0.00
0
VERTEX
8
1
10
66.20
20
70.19
30
0.00
0
VERTEX
8
1
10
66.15
20
71.87
30
0.00
0
VERTEX
8
1
10
66.20
20
73.67
30
0.00
0
VERTEX
8
1
10
66.27
20
75.46
30
0.00
0
VERTEX
8
1
10
66.33
20
77.24
30
0.00
0
VERTEX
8
1
10
66.43
20
79.05
30
0.00
0
VERTEX
8
1
10
66.28
20
81.08
30
0.00
0
VERTEX
8
1
10
66.15
20
83.12
30
0.00
0
VERTEX
8
1
10
66.02
20
85.16
30
0.00
0
VERTEX
8
1
10
65.86
20
87.22
30
0.00
0
VERTEX
8
1
10
65.67
20
89.13
30
0.00
0
VERTEX
8
1
10
65.48
20
91.06
30
0.00
0
VERTEX
8
1
10
65.29
20
92.98
30
0.00
0
VERTEX
8
1
10
65.05
20
94.90
30
0.00
0
VERTEX
8
1
10
64.91
20
96.76
30
0.00
0
VERTEX
8
1
10
64.76
20
98.64
30
0.00
0
VERTEX
8
1
10
64.61
20
100.52
30
0.00
0
VERTEX
8
1
10
64.45
20
102.40
30
0.00
0
VERTEX
8
1
10
64.23
20
104.17
30
0.00
0
VERTEX
8
1
10
64.00
20
105.95
30
0.00
0
VERTEX
8
1
10
63.78
20
107.73
30
0.00
0
VERTEX
8
1
10
63.52
20
109.52
30
0.00
0
VERTEX
8
1
10
63.34
20
111.09
30
0.00
0
VERTEX
8
1
10
63.16
20
112.67
30
0.00
0
VERTEX
8
1
10
62.98
20
114.25
30
0.00
0
SEQEND
8
1
0
POLYLINE
8
84
66
1
70
1
10
0.00
20
0.00
30
0.00
0
VERTEX
8
84
10
62.80
20
115.86
30
0.00
0
VERTEX
8
84
10
61.07
20
115.99
30
0.00
0
VERTEX
8
84
10
59.32
20
116.15
30
0.00
0
VERTEX
8
84
10
57.52
20
116.12
30
0.00
0
VERTEX
8
84
10
55.72
20
116.08
30
0.00
0
VERTEX
8
84
10
53.92
20
116.04
30
0.00
0
VERTEX
8
84
10
52.20
20
115.64
30
0.00
0
VERTEX
8
84
10
50.48
20
115.24
30
0.00
0
VERTEX
8
84
10
48.74
20
114.83
30
0.00
0
VERTEX
8
84
10
47.00
20
114.42
30
0.00
0
VERTEX
8
84
10
45.26
20
114.01
30
0.00
0
VERTEX
8
84
10
43.48
20
113.44
30
0.00
0
VERTEX
8
84
10
41.67
20
112.85
30
0.00
0
VERTEX
8
84
10
39.86
20
112.26
30
0.00
0
VERTEX
8
84
10
38.05
20
111.67
30
0.00
0
VERTEX
8
84
10
36.24
20
111.08
30
0.00
0
VERTEX
8
84
10
34.54
20
110.69
30
0.00
0
VERTEX
8
84
10
32.87
20
110.28
30
0.00
0
VERTEX
8
84
10
31.20
20
109.86
30
0.00
0
VERTEX
8
84
10
29.53
20
109.45
30
0.00
0
VERTEX
8
84
10
27.96
20
108.86
30
0.00
0
VERTEX
8
84
10
26.42
20
108.26
30
0.00
0
VERTEX
8
84
10
24.87
20
107.66
30
0.00
0
VERTEX
8
84
10
23.32
20
107.06
30
0.00
0
VERTEX
8
84
10
21.77
20
106.46
30
0.00
0
VERTEX
8
84
10
20.23
20
105.45
30
0.00
0
VERTEX
8
84
10
18.70
20
104.44
30
0.00
0
VERTEX
8
84
10
17.17
20
103.43
30
0.00
0
VERTEX
8
84
10
15.63
20
102.42
30
0.00
0
VERTEX
8
84
10
14.09
20
101.40
30
0.00
0
VERTEX
8
84
10
13.00
20
100.42
30
0.00
0
VERTEX
8
84
10
11.91
20
99.41
30
0.00
0
VERTEX
8
84
10
10.84
20
98.40
30
0.00
0
VERTEX
8
84
10
9.60
20
97.01
30
0.00
0
VERTEX
8
84
10
8.35
20
95.62
30
0.00
0
VERTEX
8
84
10
7.11
20
94.23
30
0.00
0
VERTEX
8
84
10
5.87
20
92.83
30
0.00
0
VERTEX
8
84
10
5.07
20
91.12
30
0.00
0
VERTEX
8
84
10
4.27
20
89.41
30
0.00
0
VERTEX
8
84
10
3.46
20
87.70
30
0.00
0
VERTEX
8
84
10
2.66
20
85.98
30
0.00
0
VERTEX
8
84
10
2.44
20
84.25
30
0.00
0
VERTEX
8
84
10
2.22
20
82.51
30
0.00
0
VERTEX
8
84
10
2.08
20
80.79
30
0.00
0
VERTEX
8
84
10
1.67
20
79.00
30
0.00
0
VERTEX
8
84
10
1.26
20
77.22
30
0.00
0
VERTEX
8
84
10
0.85
20
75.44
30
0.00
0
VERTEX
8
84
10
0.43
20
73.66
30
0.00
0
VERTEX
8
84
10
0.02
20
71.88
30
0.00
0
VERTEX
8
84
10
0.07
20
70.07
30
0.00
0
VERTEX
8
84
10
0.11
20
68.27
30
0.00
0
VERTEX
8
84
10
0.15
20
66.47
30
0.00
0
VERTEX
8
84
10
0.20
20
64.66
30
0.00
0
VERTEX
8
84
10
0.17
20
62.91
30
0.00
0
VERTEX
8
84
10
0.15
20
61.14
30
0.00
0
VERTEX
8
84
10
0.17
20
59.38
30
0.00
0
VERTEX
8
84
10
0.19
20
57.63
30
0.00
0
VERTEX
8
84
10
0.13
20
55.90
30
0.00
0
VERTEX
8
84
10
0.07
20
54.18
30
0.00
0
VERTEX
8
84
10
0.02
20
52.46
30
0.00
0
VERTEX
8
84
10
0.00
20
50.75
30
0.00
0
VERTEX
8
84
10
0.52
20
49.16
30
0.00
0
VERTEX
8
84
10
1.04
20
47.56
30
0.00
0
VERTEX
8
84
10
1.56
20
45.97
30
0.00
0
VERTEX
8
84
10
2.08
20
44.38
30
0.00
0
VERTEX
8
84
10
2.61
20
42.78
30
0.00
0
VERTEX
8
84
10
3.03
20
41.17
30
0.00
0
VERTEX
8
84
10
3.45
20
39.56
30
0.00
0
VERTEX
8
84
10
3.88
20
37.95
30
0.00
0
VERTEX
8
84
10
4.30
20
36.35
30
0.00
0
VERTEX
8
84
10
4.72
20
34.74
30
0.00
0
VERTEX
8
84
10
5.87
20
33.21
30
0.00
0
VERTEX
8
84
10
7.01
20
31.67
30
0.00
0
VERTEX
8
84
10
8.15
20
30.14
30
0.00
0
VERTEX
8
84
10
9.30
20
28.61
30
0.00
0
VERTEX
8
84
10
10.13
20
27.06
30
0.00
0
VERTEX
8
84
10
10.97
20
25.51
30
0.00
0
VERTEX
8
84
10
11.82
20
23.98
30
0.00
0
VERTEX
8
84
10
12.68
20
22.45
30
0.00
0
VERTEX
8
84
10
13.86
20
21.19
30
0.00
0
VERTEX
8
84
10
15.04
20
19.94
30
0.00
0
VERTEX
8
84
10
16.23
20
18.69
30
0.00
0
VERTEX
8
84
10
17.41
20
17.46
30
0.00
0
VERTEX
8
84
10
18.61
20
16.24
30
0.00
0
VERTEX
8
84
10
19.94
20
15.25
30
0.00
0
VERTEX
8
84
10
21.27
20
14.25
30
0.00
0
VERTEX
8
84
10
22.60
20
13.26
30
0.00
0
VERTEX
8
84
10
23.94
20
12.29
30
0.00
0
VERTEX
8
84
10
25.27
20
11.33
30
0.00
0
VERTEX
8
84
10
26.83
20
10.44
30
0.00
0
VERTEX
8
84
10
28.38
20
9.56
30
0.00
0
VERTEX
8
84
10
29.94
20
8.68
30
0.00
0
VERTEX
8
84
10
31.49
20
7.82
30
0.00
0
VERTEX
8
84
10
33.04
20
6.95
30
0.00
0
VERTEX
8
84
10
34.81
20
6.16
30
0.00
0
VERTEX
8
84
10
36.57
20
5.37
30
0.00
0
VERTEX
8
84
10
38.34
20
4.58
30
0.00
0
VERTEX
8
84
10
40.11
20
3.78
30
0.00
0
VERTEX
8
84
10
41.53
20
3.03
30
0.00
0
VERTEX
8
84
10
42.94
20
2.27
30
0.00
0
VERTEX
8
84
10
44.36
20
1.52
30
0.00
0
VERTEX
8
84
10
45.78
20
0.77
30
0.00
0
VERTEX
8
84
10
47.19
20
0.00
30
0.00
0
VERTEX
8
84
10
47.82
20
1.60
30
0.00
0
VERTEX
8
84
10
48.46
20
3.19
30
0.00
0
VERTEX
8
84
10
49.09
20
4.79
30
0.00
0
VERTEX
8
84
10
49.73
20
6.39
30
0.00
0
VERTEX
8
84
10
50.35
20
8.05
30
0.00
0
VERTEX
8
84
10
50.98
20
9.71
30
0.00
0
VERTEX
8
84
10
51.60
20
11.37
30
0.00
0
VERTEX
8
84
10
52.22
20
13.02
30
0.00
0
VERTEX
8
84
10
52.84
20
14.78
30
0.00
0
VERTEX
8
84
10
53.45
20
16.55
30
0.00
0
VERTEX
8
84
10
54.06
20
18.32
30
0.00
0
VERTEX
8
84
10
54.67
20
20.10
30
0.00
0
VERTEX
8
84
10
55.17
20
21.65
30
0.00
0
VERTEX
8
84
10
55.67
20
23.19
30
0.00
0
VERTEX
8
84
10
56.16
20
24.74
30
0.00
0
VERTEX
8
84
10
56.65
20
26.29
30
0.00
0
VERTEX
8
84
10
57.12
20
27.83
30
0.00
0
VERTEX
8
84
10
57.71
20
29.67
30
0.00
0
VERTEX
8
84
10
58.30
20
31.51
30
0.00
0
VERTEX
8
84
10
58.90
20
33.36
30
0.00
0
VERTEX
8
84
10
59.43
20
35.21
30
0.00
0
VERTEX
8
84
10
60.01
20
37.13
30
0.00
0
VERTEX
8
84
10
60.59
20
39.04
30
0.00
0
VERTEX
8
84
10
61.14
20
41.01
30
0.00
0
VERTEX
8
84
10
61.66
20
42.95
30
0.00
0
VERTEX
8
84
10
62.13
20
44.78
30
0.00
0
VERTEX
8
84
10
62.59
20
46.60
30
0.00
0
VERTEX
8
84
10
63.04
20
48.45
30
0.00
0
VERTEX
8
84
10
63.47
20
50.29
30
0.00
0
VERTEX
8
84
10
63.91
20
52.21
30
0.00
0
VERTEX
8
84
10
64.33
20
54.16
30
0.00
0
VERTEX
8
84
10
64.71
20
56.11
30
0.00
0
VERTEX
8
84
10
65.06
20
58.06
30
0.00
0
VERTEX
8
84
10
65.36
20
59.82
30
0.00
0
VERTEX
8
84
10
65.60
20
61.60
30
0.00
0
VERTEX
8
84
10
65.82
20
63.37
30
0.00
0
VERTEX
8
84
10
66.04
20
65.13
30
0.00
0
VERTEX
8
84
10
66.10
20
66.81
30
0.00
0
VERTEX
8
84
10
66.15
20
68.48
30
0.00
0
VERTEX
8
84
10
66.20
20
70.19
30
0.00
0
VERTEX
8
84
10
66.15
20
71.87
30
0.00
0
VERTEX
8
84
10
66.20
20
73.67
30
0.00
0
VERTEX
8
84
10
66.27
20
75.46
30
0.00
0
VERTEX
8
84
10
66.33
20
77.24
30
0.00
0
VERTEX
8
84
10
66.43
20
79.05
30
0.00
0
VERTEX
8
84
10
66.28
20
81.08
30
0.00
0
VERTEX
8
84
10
66.15
20
83.12
30
0.00
0
VERTEX
8
84
10
66.02
20
85.16
30
0.00
0
VERTEX
8
84
10
65.86
20
87.22
30
0.00
0
VERTEX
8
84
10
65.67
20
89.13
30
0.00
0
VERTEX
8
84
10
65.48
20
91.06
30
0.00
0
VERTEX
8
84
10
65.29
20
92.98
30
0.00
0
VERTEX
8
84
10
65.05
20
94.90
30
0.00
0
VERTEX
8
84
10
64.91
20
96.76
30
0.00
0
VERTEX
8
84
10
64.76
20
98.64
30
0.00
0
VERTEX
8
84
10
64.61
20
100.52
30
0.00
0
VERTEX
8
84
10
64.45
20
102.40
30
0.00
0
VERTEX
8
84
10
64.23
20
104.17
30
0.00
0
VERTEX
8
84
10
64.00
20
105.95
30
0.00
0
VERTEX
8
84
10
63.78
20
107.73
30
0.00
0
VERTEX
8
84
10
63.52
20
109.52
30
0.00
0
VERTEX
8
84
10
63.34
20
111.09
30
0.00
0
VERTEX
8
84
10
63.16
20
112.67
30
0.00
0
VERTEX
8
84
10
62.98
20
114.25
30
0.00
0
SEQEND
8
84
0
POINT
8
2
10
62.80
20
115.86
30
0.00
0
POINT
8
3
10
61.07
20
115.99
30
0.00
0
POINT
8
3
10
59.32
20
116.15
30
0.00
0
POINT
8
3
10
57.52
20
116.12
30
0.00
0
POINT
8
3
10
55.72
20
116.08
30
0.00
0
POINT
8
3
10
53.92
20
116.04
30
0.00
0
POINT
8
3
10
52.20
20
115.64
30
0.00
0
POINT
8
3
10
50.48
20
115.24
30
0.00
0
POINT
8
3
10
48.74
20
114.83
30
0.00
0
POINT
8
3
10
47.00
20
114.42
30
0.00
0
POINT
8
3
10
45.26
20
114.01
30
0.00
0
POINT
8
3
10
43.48
20
113.44
30
0.00
0
POINT
8
3
10
41.67
20
112.85
30
0.00
0
POINT
8
3
10
39.86
20
112.26
30
0.00
0
POINT
8
3
10
38.05
20
111.67
30
0.00
0
POINT
8
3
10
36.24
20
111.08
30
0.00
0
POINT
8
3
10
34.54
20
110.69
30
0.00
0
POINT
8
3
10
32.87
20
110.28
30
0.00
0
POINT
8
3
10
31.20
20
109.86
30
0.00
0
POINT
8
3
10
29.53
20
109.45
30
0.00
0
POINT
8
3
10
27.96
20
108.86
30
0.00
0
POINT
8
3
10
26.42
20
108.26
30
0.00
0
POINT
8
3
10
24.87
20
107.66
30
0.00
0
POINT
8
3
10
23.32
20
107.06
30
0.00
0
POINT
8
3
10
21.77
20
106.46
30
0.00
0
POINT
8
3
10
20.23
20
105.45
30
0.00
0
POINT
8
3
10
18.70
20
104.44
30
0.00
0
POINT
8
3
10
17.17
20
103.43
30
0.00
0
POINT
8
3
10
15.63
20
102.42
30
0.00
0
POINT
8
3
10
14.09
20
101.40
30
0.00
0
POINT
8
3
10
13.00
20
100.42
30
0.00
0
POINT
8
3
10
11.91
20
99.41
30
0.00
0
POINT
8
3
10
10.84
20
98.40
30
0.00
0
POINT
8
3
10
9.60
20
97.01
30
0.00
0
POINT
8
3
10
8.35
20
95.62
30
0.00
0
POINT
8
3
10
7.11
20
94.23
30
0.00
0
POINT
8
3
10
5.87
20
92.83
30
0.00
0
POINT
8
3
10
5.07
20
91.12
30
0.00
0
POINT
8
3
10
4.27
20
89.41
30
0.00
0
POINT
8
3
10
3.46
20
87.70
30
0.00
0
POINT
8
3
10
2.66
20
85.98
30
0.00
0
POINT
8
3
10
2.44
20
84.25
30
0.00
0
POINT
8
3
10
2.22
20
82.51
30
0.00
0
POINT
8
3
10
2.08
20
80.79
30
0.00
0
POINT
8
3
10
1.67
20
79.00
30
0.00
0
POINT
8
3
10
1.26
20
77.22
30
0.00
0
POINT
8
3
10
0.85
20
75.44
30
0.00
0
POINT
8
3
10
0.43
20
73.66
30
0.00
0
POINT
8
3
10
0.02
20
71.88
30
0.00
0
POINT
8
3
10
0.07
20
70.07
30
0.00
0
POINT
8
3
10
0.11
20
68.27
30
0.00
0
POINT
8
3
10
0.15
20
66.47
30
0.00
0
POINT
8
3
10
0.20
20
64.66
30
0.00
0
POINT
8
3
10
0.17
20
62.91
30
0.00
0
POINT
8
3
10
0.15
20
61.14
30
0.00
0
POINT
8
3
10
0.17
20
59.38
30
0.00
0
POINT
8
3
10
0.19
20
57.63
30
0.00
0
POINT
8
3
10
0.13
20
55.90
30
0.00
0
POINT
8
3
10
0.07
20
54.18
30
0.00
0
POINT
8
3
10
0.02
20
52.46
30
0.00
0
POINT
8
3
10
0.00
20
50.75
30
0.00
0
POINT
8
3
10
0.52
20
49.16
30
0.00
0
POINT
8
3
10
1.04
20
47.56
30
0.00
0
POINT
8
3
10
1.56
20
45.97
30
0.00
0
POINT
8
3
10
2.08
20
44.38
30
0.00
0
POINT
8
3
10
2.61
20
42.78
30
0.00
0
POINT
8
3
10
3.03
20
41.17
30
0.00
0
POINT
8
3
10
3.45
20
39.56
30
0.00
0
POINT
8
3
10
3.88
20
37.95
30
0.00
0
POINT
8
3
10
4.30
20
36.35
30
0.00
0
POINT
8
3
10
4.72
20
34.74
30
0.00
0
POINT
8
3
10
5.87
20
33.21
30
0.00
0
POINT
8
3
10
7.01
20
31.67
30
0.00
0
POINT
8
3
10
8.15
20
30.14
30
0.00
0
POINT
8
3
10
9.30
20
28.61
30
0.00
0
POINT
8
3
10
10.13
20
27.06
30
0.00
0
POINT
8
3
10
10.97
20
25.51
30
0.00
0
POINT
8
3
10
11.82
20
23.98
30
0.00
0
POINT
8
3
10
12.68
20
22.45
30
0.00
0
POINT
8
3
10
13.86
20
21.19
30
0.00
0
POINT
8
3
10
15.04
20
19.94
30
0.00
0
POINT
8
3
10
16.23
20
18.69
30
0.00
0
POINT
8
3
10
17.41
20
17.46
30
0.00
0
POINT
8
3
10
18.61
20
16.24
30
0.00
0
POINT
8
3
10
19.94
20
15.25
30
0.00
0
POINT
8
3
10
21.27
20
14.25
30
0.00
0
POINT
8
3
10
22.60
20
13.26
30
0.00
0
POINT
8
3
10
23.94
20
12.29
30
0.00
0
POINT
8
3
10
25.27
20
11.33
30
0.00
0
POINT
8
3
10
26.83
20
10.44
30
0.00
0
POINT
8
3
10
28.38
20
9.56
30
0.00
0
POINT
8
3
10
29.94
20
8.68
30
0.00
0
POINT
8
3
10
31.49
20
7.82
30
0.00
0
POINT
8
3
10
33.04
20
6.95
30
0.00
0
POINT
8
3
10
34.81
20
6.16
30
0.00
0
POINT
8
3
10
36.57
20
5.37
30
0.00
0
POINT
8
3
10
38.34
20
4.58
30
0.00
0
POINT
8
3
10
40.11
20
3.78
30
0.00
0
POINT
8
3
10
41.53
20
3.03
30
0.00
0
POINT
8
3
10
42.94
20
2.27
30
0.00
0
POINT
8
3
10
44.36
20
1.52
30
0.00
0
POINT
8
3
10
45.78
20
0.77
30
0.00
0
POINT
8
2
10
47.19
20
0.00
30
0.00
0
POINT
8
3
10
47.82
20
1.60
30
0.00
0
POINT
8
3
10
48.46
20
3.19
30
0.00
0
POINT
8
3
10
49.09
20
4.79
30
0.00
0
POINT
8
3
10
49.73
20
6.39
30
0.00
0
POINT
8
3
10
50.35
20
8.05
30
0.00
0
POINT
8
3
10
50.98
20
9.71
30
0.00
0
POINT
8
3
10
51.60
20
11.37
30
0.00
0
POINT
8
3
10
52.22
20
13.02
30
0.00
0
POINT
8
3
10
52.84
20
14.78
30
0.00
0
POINT
8
3
10
53.45
20
16.55
30
0.00
0
POINT
8
3
10
54.06
20
18.32
30
0.00
0
POINT
8
3
10
54.67
20
20.10
30
0.00
0
POINT
8
3
10
55.17
20
21.65
30
0.00
0
POINT
8
3
10
55.67
20
23.19
30
0.00
0
POINT
8
3
10
56.16
20
24.74
30
0.00
0
POINT
8
3
10
56.65
20
26.29
30
0.00
0
POINT
8
3
10
57.12
20
27.83
30
0.00
0
POINT
8
3
10
57.71
20
29.67
30
0.00
0
POINT
8
3
10
58.30
20
31.51
30
0.00
0
POINT
8
3
10
58.90
20
33.36
30
0.00
0
POINT
8
3
10
59.43
20
35.21
30
0.00
0
POINT
8
3
10
60.01
20
37.13
30
0.00
0
POINT
8
3
10
60.59
20
39.04
30
0.00
0
POINT
8
3
10
61.14
20
41.01
30
0.00
0
POINT
8
3
10
61.66
20
42.95
30
0.00
0
POINT
8
3
10
62.13
20
44.78
30
0.00
0
POINT
8
3
10
62.59
20
46.60
30
0.00
0
POINT
8
3
10
63.04
20
48.45
30
0.00
0
POINT
8
3
10
63.47
20
50.29
30
0.00
0
POINT
8
3
10
63.91
20
52.21
30
0.00
0
POINT
8
3
10
64.33
20
54.16
30
0.00
0
POINT
8
3
10
64.71
20
56.11
30
0.00
0
POINT
8
3
10
65.06
20
58.06
30
0.00
0
POINT
8
3
10
65.36
20
59.82
30
0.00
0
POINT
8
3
10
65.60
20
61.60
30
0.00
0
POINT
8
3
10
65.82
20
63.37
30
0.00
0
POINT
8
3
10
66.04
20
65.13
30
0.00
0
POINT
8
3
10
66.10
20
66.81
30
0.00
0
POINT
8
3
10
66.15
20
68.48
30
0.00
0
POINT
8
3
10
66.20
20
70.19
30
0.00
0
POINT
8
3
10
66.15
20
71.87
30
0.00
0
POINT
8
3
10
66.20
20
73.67
30
0.00
0
POINT
8
3
10
66.27
20
75.46
30
0.00
0
POINT
8
3
10
66.33
20
77.24
30
0.00
0
POINT
8
3
10
66.43
20
79.05
30
0.00
0
POINT
8
3
10
66.28
20
81.08
30
0.00
0
POINT
8
3
10
66.15
20
83.12
30
0.00
0
POINT
8
3
10
66.02
20
85.16
30
0.00
0
POINT
8
3
10
65.86
20
87.22
30
0.00
0
POINT
8
3
10
65.67
20
89.13
30
0.00
0
POINT
8
3
10
65.48
20
91.06
30
0.00
0
POINT
8
3
10
65.29
20
92.98
30
0.00
0
POINT
8
3
10
65.05
20
94.90
30
0.00
0
POINT
8
3
10
64.91
20
96.76
30
0.00
0
POINT
8
3
10
64.76
20
98.64
30
0.00
0
POINT
8
3
10
64.61
20
100.52
30
0.00
0
POINT
8
3
10
64.45
20
102.40
30
0.00
0
POINT
8
3
10
64.23
20
104.17
30
0.00
0
POINT
8
3
10
64.00
20
105.95
30
0.00
0
POINT
8
3
10
63.78
20
107.73
30
0.00
0
POINT
8
3
10
63.52
20
109.52
30
0.00
0
POINT
8
3
10
63.34
20
111.09
30
0.00
0
POINT
8
3
10
63.16
20
112.67
30
0.00
0
POINT
8
3
10
62.98
20
114.25
30
0.00
0
LINE
8
7
10
39.98
20
96.67
30
0.00
11
31.28
21
25.90
31
0.00
0
TEXT
8
15
10
3.32
20
72.08
30
0.00
40
5.00
1
SHELL 1:1 OF THE BODY SURFACE - NOT A PATTERN
0
TEXT
8
15
10
3.32
20
68.08
30
0.00
40
5.00
1
No ease, no seam allowance, no grading
0
TEXT
8
15
10
3.32
20
64.08
30
0.00
40
5.00
1
Seam vs body: +4.90 mm (curvature, not error)
0
TEXT
8
15
10
3.32
20
60.08
30
0.00
40
5.00
1
Grain: default = body vertical, set by pattern maker
0
TEXT
8
15
10
3.32
20
56.08
30
0.00
40
5.00
1
Quantity 1,1 is a default, confirm
0
TEXT
8
15
10
3.32
20
52.08
30
0.00
40
5.00
1
Asset avatar_master.glb 0caa604bab35
0
TEXT
8
15
10
3.32
20
48.08
30
0.00
40
5.00
1
Shares seam with CUP_PANEL_A: mismatch 0.55 mm
0
ENDBLK
8
0
0
ENDSEC
0
SECTION
2
ENTITIES
0
TEXT
8
1
10
0.00
20
0.00
30
0.00
40
3.00
1
Style Name: AVATAR_MASTER_DRAFT
0
TEXT
8
1
10
0.00
20
-4.00
30
0.00
40
3.00
1
Creation Date: 05-09-2026
0
TEXT
8
1
10
0.00
20
-8.00
30
0.00
40
3.00
1
Creation Time: 07:37
0
TEXT
8
1
10
0.00
20
-12.00
30
0.00
40
3.00
1
Author: Crossian;3d-avatar-flatten;0.1.0
0
TEXT
8
1
10
0.00
20
-16.00
30
0.00
40
3.00
1
Sample Size: UNGRADED
0
TEXT
8
1
10
0.00
20
-20.00
30
0.00
40
3.00
1
Grade Rule Table: NONE
0
TEXT
8
1
10
0.00
20
-24.00
30
0.00
40
3.00
1
Units: METRIC
0
TEXT
8
1
10
0.00
20
-28.00
30
0.00
40
3.00
1
ASTM/D13 Proposal 1 Version: D6673-10
0
TEXT
8
1
10
0.00
20
-32.00
30
0.00
40
3.00
1
Curve Tolerance: 0.01
0
INSERT
8
1
2
CUP_PANEL_A
10
120.00
20
0.00
30
0.00
0
INSERT
8
1
2
CUP_PANEL_B
10
233.03
20
0.00
30
0.00
0
ENDSEC
0
EOF
