999
ASTM D6673-10 pattern DXF (R12, Gerber dialect: empty HEADER, no TABLES, no layout blocks)
0
SECTION
2
HEADER
0
ENDSEC
0
SECTION
2
BLOCKS
0
BLOCK
8
0
2
CUP_PANEL_A
70
0
10
0.00
20
0.00
30
0.00
3
CUP_PANEL_A
0
TEXT
8
1
10
54.44
20
74.07
30
0.00
40
3.00
1
Piece Name: CUP_PANEL_A
0
TEXT
8
1
10
54.44
20
70.07
30
0.00
40
3.00
1
Quantity: 1,1
0
POLYLINE
8
1
66
1
70
1
10
0.00
20
0.00
30
0.00
0
VERTEX
8
1
10
108.88
20
0.00
30
0.00
0
VERTEX
8
1
10
108.85
20
1.95
30
0.00
0
VERTEX
8
1
10
108.82
20
3.90
30
0.00
0
VERTEX
8
1
10
108.79
20
5.86
30
0.00
0
VERTEX
8
1
10
108.76
20
7.82
30
0.00
0
VERTEX
8
1
10
108.41
20
9.43
30
0.00
0
VERTEX
8
1
10
108.05
20
11.05
30
0.00
0
VERTEX
8
1
10
107.70
20
12.67
30
0.00
0
VERTEX
8
1
10
107.34
20
14.29
30
0.00
0
VERTEX
8
1
10
106.98
20
15.91
30
0.00
0
VERTEX
8
1
10
106.41
20
17.76
30
0.00
0
VERTEX
8
1
10
105.83
20
19.62
30
0.00
0
VERTEX
8
1
10
105.24
20
21.47
30
0.00
0
VERTEX
8
1
10
104.65
20
23.33
30
0.00
0
VERTEX
8
1
10
104.01
20
24.87
30
0.00
0
VERTEX
8
1
10
103.37
20
26.42
30
0.00
0
VERTEX
8
1
10
102.72
20
27.97
30
0.00
0
VERTEX
8
1
10
102.06
20
29.52
30
0.00
0
VERTEX
8
1
10
100.91
20
30.97
30
0.00
0
VERTEX
8
1
10
99.74
20
32.41
30
0.00
0
VERTEX
8
1
10
98.55
20
33.86
30
0.00
0
VERTEX
8
1
10
97.35
20
35.30
30
0.00
0
VERTEX
8
1
10
96.63
20
36.75
30
0.00
0
VERTEX
8
1
10
95.91
20
38.21
30
0.00
0
VERTEX
8
1
10
95.18
20
39.67
30
0.00
0
VERTEX
8
1
10
94.46
20
41.11
30
0.00
0
VERTEX
8
1
10
93.18
20
42.27
30
0.00
0
VERTEX
8
1
10
91.89
20
43.43
30
0.00
0
VERTEX
8
1
10
90.61
20
44.59
30
0.00
0
VERTEX
8
1
10
89.31
20
45.76
30
0.00
0
VERTEX
8
1
10
88.00
20
46.93
30
0.00
0
VERTEX
8
1
10
86.69
20
47.80
30
0.00
0
VERTEX
8
1
10
85.33
20
48.65
30
0.00
0
VERTEX
8
1
10
83.96
20
49.49
30
0.00
0
VERTEX
8
1
10
82.58
20
50.34
30
0.00
0
VERTEX
8
1
10
81.39
20
51.57
30
0.00
0
VERTEX
8
1
10
80.20
20
52.79
30
0.00
0
VERTEX
8
1
10
79.00
20
54.00
30
0.00
0
VERTEX
8
1
10
77.83
20
55.19
30
0.00
0
VERTEX
8
1
10
76.24
20
55.54
30
0.00
0
VERTEX
8
1
10
74.65
20
55.89
30
0.00
0
VERTEX
8
1
10
73.06
20
56.25
30
0.00
0
VERTEX
8
1
10
71.47
20
56.60
30
0.00
0
VERTEX
8
1
10
69.85
20
57.05
30
0.00
0
VERTEX
8
1
10
68.24
20
57.50
30
0.00
0
VERTEX
8
1
10
66.62
20
57.94
30
0.00
0
VERTEX
8
1
10
64.99
20
58.38
30
0.00
0
VERTEX
8
1
10
63.20
20
59.23
30
0.00
0
VERTEX
8
1
10
61.45
20
60.00
30
0.00
0
VERTEX
8
1
10
59.70
20
60.76
30
0.00
0
VERTEX
8
1
10
57.81
20
61.19
30
0.00
0
VERTEX
8
1
10
55.91
20
61.63
30
0.00
0
VERTEX
8
1
10
54.01
20
62.07
30
0.00
0
VERTEX
8
1
10
52.07
20
61.65
30
0.00
0
VERTEX
8
1
10
50.13
20
61.24
30
0.00
0
VERTEX
8
1
10
48.19
20
60.82
30
0.00
0
VERTEX
8
1
10
46.26
20
60.41
30
0.00
0
VERTEX
8
1
10
44.67
20
59.99
30
0.00
0
VERTEX
8
1
10
43.08
20
59.56
30
0.00
0
VERTEX
8
1
10
41.49
20
59.14
30
0.00
0
VERTEX
8
1
10
39.90
20
58.72
30
0.00
0
VERTEX
8
1
10
38.02
20
58.33
30
0.00
0
VERTEX
8
1
10
36.22
20
57.79
30
0.00
0
VERTEX
8
1
10
34.41
20
57.26
30
0.00
0
VERTEX
8
1
10
32.97
20
56.58
30
0.00
0
VERTEX
8
1
10
31.53
20
55.90
30
0.00
0
VERTEX
8
1
10
30.11
20
55.19
30
0.00
0
VERTEX
8
1
10
28.73
20
54.41
30
0.00
0
VERTEX
8
1
10
27.35
20
53.64
30
0.00
0
VERTEX
8
1
10
25.98
20
52.86
30
0.00
0
VERTEX
8
1
10
24.60
20
52.07
30
0.00
0
VERTEX
8
1
10
23.23
20
50.87
30
0.00
0
VERTEX
8
1
10
21.86
20
49.68
30
0.00
0
VERTEX
8
1
10
20.49
20
48.49
30
0.00
0
VERTEX
8
1
10
19.13
20
47.29
30
0.00
0
VERTEX
8
1
10
17.79
20
46.18
30
0.00
0
VERTEX
8
1
10
16.45
20
45.07
30
0.00
0
VERTEX
8
1
10
15.12
20
43.95
30
0.00
0
VERTEX
8
1
10
13.78
20
42.84
30
0.00
0
VERTEX
8
1
10
12.63
20
41.59
30
0.00
0
VERTEX
8
1
10
11.48
20
40.34
30
0.00
0
VERTEX
8
1
10
10.34
20
39.09
30
0.00
0
VERTEX
8
1
10
9.05
20
37.72
30
0.00
0
VERTEX
8
1
10
7.79
20
36.31
30
0.00
0
VERTEX
8
1
10
6.56
20
34.89
30
0.00
0
VERTEX
8
1
10
5.57
20
33.69
30
0.00
0
VERTEX
8
1
10
4.59
20
32.48
30
0.00
0
VERTEX
8
1
10
3.59
20
31.28
30
0.00
0
VERTEX
8
1
10
2.59
20
30.10
30
0.00
0
VERTEX
8
1
10
1.95
20
28.66
30
0.00
0
VERTEX
8
1
10
1.31
20
27.23
30
0.00
0
VERTEX
8
1
10
0.65
20
25.79
30
0.00
0
VERTEX
8
1
10
0.00
20
24.37
30
0.00
0
VERTEX
8
1
10
1.70
20
23.47
30
0.00
0
VERTEX
8
1
10
3.39
20
22.57
30
0.00
0
VERTEX
8
1
10
5.11
20
21.65
30
0.00
0
VERTEX
8
1
10
6.80
20
20.76
30
0.00
0
VERTEX
8
1
10
8.30
20
19.97
30
0.00
0
VERTEX
8
1
10
9.79
20
19.18
30
0.00
0
VERTEX
8
1
10
11.29
20
18.38
30
0.00
0
VERTEX
8
1
10
12.85
20
17.58
30
0.00
0
VERTEX
8
1
10
14.38
20
16.84
30
0.00
0
VERTEX
8
1
10
16.02
20
16.15
30
0.00
0
VERTEX
8
1
10
17.65
20
15.46
30
0.00
0
VERTEX
8
1
10
19.34
20
14.78
30
0.00
0
VERTEX
8
1
10
21.01
20
14.17
30
0.00
0
VERTEX
8
1
10
22.68
20
13.55
30
0.00
0
VERTEX
8
1
10
24.32
20
12.88
30
0.00
0
VERTEX
8
1
10
25.96
20
12.21
30
0.00
0
VERTEX
8
1
10
27.65
20
11.59
30
0.00
0
VERTEX
8
1
10
29.33
20
10.98
30
0.00
0
VERTEX
8
1
10
31.00
20
10.38
30
0.00
0
VERTEX
8
1
10
32.62
20
9.84
30
0.00
0
VERTEX
8
1
10
34.29
20
9.33
30
0.00
0
VERTEX
8
1
10
35.95
20
8.85
30
0.00
0
VERTEX
8
1
10
37.61
20
8.36
30
0.00
0
VERTEX
8
1
10
39.26
20
7.87
30
0.00
0
VERTEX
8
1
10
41.16
20
7.33
30
0.00
0
VERTEX
8
1
10
43.06
20
6.79
30
0.00
0
VERTEX
8
1
10
44.97
20
6.26
30
0.00
0
VERTEX
8
1
10
46.88
20
5.75
30
0.00
0
VERTEX
8
1
10
48.70
20
5.36
30
0.00
0
VERTEX
8
1
10
50.53
20
4.98
30
0.00
0
VERTEX
8
1
10
52.36
20
4.59
30
0.00
0
VERTEX
8
1
10
54.19
20
4.22
30
0.00
0
VERTEX
8
1
10
56.13
20
3.88
30
0.00
0
VERTEX
8
1
10
58.08
20
3.54
30
0.00
0
VERTEX
8
1
10
60.03
20
3.20
30
0.00
0
VERTEX
8
1
10
62.00
20
2.90
30
0.00
0
VERTEX
8
1
10
64.00
20
2.61
30
0.00
0
VERTEX
8
1
10
65.99
20
2.33
30
0.00
0
VERTEX
8
1
10
67.99
20
2.06
30
0.00
0
VERTEX
8
1
10
69.99
20
1.84
30
0.00
0
VERTEX
8
1
10
72.02
20
1.66
30
0.00
0
VERTEX
8
1
10
74.02
20
1.49
30
0.00
0
VERTEX
8
1
10
76.04
20
1.35
30
0.00
0
VERTEX
8
1
10
78.06
20
1.23
30
0.00
0
VERTEX
8
1
10
79.68
20
1.09
30
0.00
0
VERTEX
8
1
10
81.30
20
0.94
30
0.00
0
VERTEX
8
1
10
82.95
20
0.80
30
0.00
0
VERTEX
8
1
10
84.58
20
0.73
30
0.00
0
VERTEX
8
1
10
86.19
20
0.66
30
0.00
0
VERTEX
8
1
10
88.17
20
0.68
30
0.00
0
VERTEX
8
1
10
90.16
20
0.70
30
0.00
0
VERTEX
8
1
10
92.12
20
0.73
30
0.00
0
VERTEX
8
1
10
94.10
20
0.77
30
0.00
0
VERTEX
8
1
10
95.99
20
0.68
30
0.00
0
VERTEX
8
1
10
97.86
20
0.60
30
0.00
0
VERTEX
8
1
10
99.74
20
0.51
30
0.00
0
VERTEX
8
1
10
101.62
20
0.42
30
0.00
0
VERTEX
8
1
10
103.43
20
0.32
30
0.00
0
VERTEX
8
1
10
105.25
20
0.21
30
0.00
0
VERTEX
8
1
10
107.06
20
0.11
30
0.00
0
SEQEND
8
1
0
POLYLINE
8
84
66
1
70
1
10
0.00
20
0.00
30
0.00
0
VERTEX
8
84
10
108.88
20
0.00
30
0.00
0
VERTEX
8
84
10
108.85
20
1.95
30
0.00
0
VERTEX
8
84
10
108.82
20
3.90
30
0.00
0
VERTEX
8
84
10
108.79
20
5.86
30
0.00
0
VERTEX
8
84
10
108.76
20
7.82
30
0.00
0
VERTEX
8
84
10
108.41
20
9.43
30
0.00
0
VERTEX
8
84
10
108.05
20
11.05
30
0.00
0
VERTEX
8
84
10
107.70
20
12.67
30
0.00
0
VERTEX
8
84
10
107.34
20
14.29
30
0.00
0
VERTEX
8
84
10
106.98
20
15.91
30
0.00
0
VERTEX
8
84
10
106.41
20
17.76
30
0.00
0
VERTEX
8
84
10
105.83
20
19.62
30
0.00
0
VERTEX
8
84
10
105.24
20
21.47
30
0.00
0
VERTEX
8
84
10
104.65
20
23.33
30
0.00
0
VERTEX
8
84
10
104.01
20
24.87
30
0.00
0
VERTEX
8
84
10
103.37
20
26.42
30
0.00
0
VERTEX
8
84
10
102.72
20
27.97
30
0.00
0
VERTEX
8
84
10
102.06
20
29.52
30
0.00
0
VERTEX
8
84
10
100.91
20
30.97
30
0.00
0
VERTEX
8
84
10
99.74
20
32.41
30
0.00
0
VERTEX
8
84
10
98.55
20
33.86
30
0.00
0
VERTEX
8
84
10
97.35
20
35.30
30
0.00
0
VERTEX
8
84
10
96.63
20
36.75
30
0.00
0
VERTEX
8
84
10
95.91
20
38.21
30
0.00
0
VERTEX
8
84
10
95.18
20
39.67
30
0.00
0
VERTEX
8
84
10
94.46
20
41.11
30
0.00
0
VERTEX
8
84
10
93.18
20
42.27
30
0.00
0
VERTEX
8
84
10
91.89
20
43.43
30
0.00
0
VERTEX
8
84
10
90.61
20
44.59
30
0.00
0
VERTEX
8
84
10
89.31
20
45.76
30
0.00
0
VERTEX
8
84
10
88.00
20
46.93
30
0.00
0
VERTEX
8
84
10
86.69
20
47.80
30
0.00
0
VERTEX
8
84
10
85.33
20
48.65
30
0.00
0
VERTEX
8
84
10
83.96
20
49.49
30
0.00
0
VERTEX
8
84
10
82.58
20
50.34
30
0.00
0
VERTEX
8
84
10
81.39
20
51.57
30
0.00
0
VERTEX
8
84
10
80.20
20
52.79
30
0.00
0
VERTEX
8
84
10
79.00
20
54.00
30
0.00
0
VERTEX
8
84
10
77.83
20
55.19
30
0.00
0
VERTEX
8
84
10
76.24
20
55.54
30
0.00
0
VERTEX
8
84
10
74.65
20
55.89
30
0.00
0
VERTEX
8
84
10
73.06
20
56.25
30
0.00
0
VERTEX
8
84
10
71.47
20
56.60
30
0.00
0
VERTEX
8
84
10
69.85
20
57.05
30
0.00
0
VERTEX
8
84
10
68.24
20
57.50
30
0.00
0
VERTEX
8
84
10
66.62
20
57.94
30
0.00
0
VERTEX
8
84
10
64.99
20
58.38
30
0.00
0
VERTEX
8
84
10
63.20
20
59.23
30
0.00
0
VERTEX
8
84
10
61.45
20
60.00
30
0.00
0
VERTEX
8
84
10
59.70
20
60.76
30
0.00
0
VERTEX
8
84
10
57.81
20
61.19
30
0.00
0
VERTEX
8
84
10
55.91
20
61.63
30
0.00
0
VERTEX
8
84
10
54.01
20
62.07
30
0.00
0
VERTEX
8
84
10
52.07
20
61.65
30
0.00
0
VERTEX
8
84
10
50.13
20
61.24
30
0.00
0
VERTEX
8
84
10
48.19
20
60.82
30
0.00
0
VERTEX
8
84
10
46.26
20
60.41
30
0.00
0
VERTEX
8
84
10
44.67
20
59.99
30
0.00
0
VERTEX
8
84
10
43.08
20
59.56
30
0.00
0
VERTEX
8
84
10
41.49
20
59.14
30
0.00
0
VERTEX
8
84
10
39.90
20
58.72
30
0.00
0
VERTEX
8
84
10
38.02
20
58.33
30
0.00
0
VERTEX
8
84
10
36.22
20
57.79
30
0.00
0
VERTEX
8
84
10
34.41
20
57.26
30
0.00
0
VERTEX
8
84
10
32.97
20
56.58
30
0.00
0
VERTEX
8
84
10
31.53
20
55.90
30
0.00
0
VERTEX
8
84
10
30.11
20
55.19
30
0.00
0
VERTEX
8
84
10
28.73
20
54.41
30
0.00
0
VERTEX
8
84
10
27.35
20
53.64
30
0.00
0
VERTEX
8
84
10
25.98
20
52.86
30
0.00
0
VERTEX
8
84
10
24.60
20
52.07
30
0.00
0
VERTEX
8
84
10
23.23
20
50.87
30
0.00
0
VERTEX
8
84
10
21.86
20
49.68
30
0.00
0
VERTEX
8
84
10
20.49
20
48.49
30
0.00
0
VERTEX
8
84
10
19.13
20
47.29
30
0.00
0
VERTEX
8
84
10
17.79
20
46.18
30
0.00
0
VERTEX
8
84
10
16.45
20
45.07
30
0.00
0
VERTEX
8
84
10
15.12
20
43.95
30
0.00
0
VERTEX
8
84
10
13.78
20
42.84
30
0.00
0
VERTEX
8
84
10
12.63
20
41.59
30
0.00
0
VERTEX
8
84
10
11.48
20
40.34
30
0.00
0
VERTEX
8
84
10
10.34
20
39.09
30
0.00
0
VERTEX
8
84
10
9.05
20
37.72
30
0.00
0
VERTEX
8
84
10
7.79
20
36.31
30
0.00
0
VERTEX
8
84
10
6.56
20
34.89
30
0.00
0
VERTEX
8
84
10
5.57
20
33.69
30
0.00
0
VERTEX
8
84
10
4.59
20
32.48
30
0.00
0
VERTEX
8
84
10
3.59
20
31.28
30
0.00
0
VERTEX
8
84
10
2.59
20
30.10
30
0.00
0
VERTEX
8
84
10
1.95
20
28.66
30
0.00
0
VERTEX
8
84
10
1.31
20
27.23
30
0.00
0
VERTEX
8
84
10
0.65
20
25.79
30
0.00
0
VERTEX
8
84
10
0.00
20
24.37
30
0.00
0
VERTEX
8
84
10
1.70
20
23.47
30
0.00
0
VERTEX
8
84
10
3.39
20
22.57
30
0.00
0
VERTEX
8
84
10
5.11
20
21.65
30
0.00
0
VERTEX
8
84
10
6.80
20
20.76
30
0.00
0
VERTEX
8
84
10
8.30
20
19.97
30
0.00
0
VERTEX
8
84
10
9.79
20
19.18
30
0.00
0
VERTEX
8
84
10
11.29
20
18.38
30
0.00
0
VERTEX
8
84
10
12.85
20
17.58
30
0.00
0
VERTEX
8
84
10
14.38
20
16.84
30
0.00
0
VERTEX
8
84
10
16.02
20
16.15
30
0.00
0
VERTEX
8
84
10
17.65
20
15.46
30
0.00
0
VERTEX
8
84
10
19.34
20
14.78
30
0.00
0
VERTEX
8
84
10
21.01
20
14.17
30
0.00
0
VERTEX
8
84
10
22.68
20
13.55
30
0.00
0
VERTEX
8
84
10
24.32
20
12.88
30
0.00
0
VERTEX
8
84
10
25.96
20
12.21
30
0.00
0
VERTEX
8
84
10
27.65
20
11.59
30
0.00
0
VERTEX
8
84
10
29.33
20
10.98
30
0.00
0
VERTEX
8
84
10
31.00
20
10.38
30
0.00
0
VERTEX
8
84
10
32.62
20
9.84
30
0.00
0
VERTEX
8
84
10
34.29
20
9.33
30
0.00
0
VERTEX
8
84
10
35.95
20
8.85
30
0.00
0
VERTEX
8
84
10
37.61
20
8.36
30
0.00
0
VERTEX
8
84
10
39.26
20
7.87
30
0.00
0
VERTEX
8
84
10
41.16
20
7.33
30
0.00
0
VERTEX
8
84
10
43.06
20
6.79
30
0.00
0
VERTEX
8
84
10
44.97
20
6.26
30
0.00
0
VERTEX
8
84
10
46.88
20
5.75
30
0.00
0
VERTEX
8
84
10
48.70
20
5.36
30
0.00
0
VERTEX
8
84
10
50.53
20
4.98
30
0.00
0
VERTEX
8
84
10
52.36
20
4.59
30
0.00
0
VERTEX
8
84
10
54.19
20
4.22
30
0.00
0
VERTEX
8
84
10
56.13
20
3.88
30
0.00
0
VERTEX
8
84
10
58.08
20
3.54
30
0.00
0
VERTEX
8
84
10
60.03
20
3.20
30
0.00
0
VERTEX
8
84
10
62.00
20
2.90
30
0.00
0
VERTEX
8
84
10
64.00
20
2.61
30
0.00
0
VERTEX
8
84
10
65.99
20
2.33
30
0.00
0
VERTEX
8
84
10
67.99
20
2.06
30
0.00
0
VERTEX
8
84
10
69.99
20
1.84
30
0.00
0
VERTEX
8
84
10
72.02
20
1.66
30
0.00
0
VERTEX
8
84
10
74.02
20
1.49
30
0.00
0
VERTEX
8
84
10
76.04
20
1.35
30
0.00
0
VERTEX
8
84
10
78.06
20
1.23
30
0.00
0
VERTEX
8
84
10
79.68
20
1.09
30
0.00
0
VERTEX
8
84
10
81.30
20
0.94
30
0.00
0
VERTEX
8
84
10
82.95
20
0.80
30
0.00
0
VERTEX
8
84
10
84.58
20
0.73
30
0.00
0
VERTEX
8
84
10
86.19
20
0.66
30
0.00
0
VERTEX
8
84
10
88.17
20
0.68
30
0.00
0
VERTEX
8
84
10
90.16
20
0.70
30
0.00
0
VERTEX
8
84
10
92.12
20
0.73
30
0.00
0
VERTEX
8
84
10
94.10
20
0.77
30
0.00
0
VERTEX
8
84
10
95.99
20
0.68
30
0.00
0
VERTEX
8
84
10
97.86
20
0.60
30
0.00
0
VERTEX
8
84
10
99.74
20
0.51
30
0.00
0
VERTEX
8
84
10
101.62
20
0.42
30
0.00
0
VERTEX
8
84
10
103.43
20
0.32
30
0.00
0
VERTEX
8
84
10
105.25
20
0.21
30
0.00
0
VERTEX
8
84
10
107.06
20
0.11
30
0.00
0
SEQEND
8
84
0
POINT
8
2
10
108.88
20
0.00
30
0.00
0
POINT
8
3
10
108.85
20
1.95
30
0.00
0
POINT
8
3
10
108.82
20
3.90
30
0.00
0
POINT
8
3
10
108.79
20
5.86
30
0.00
0
POINT
8
3
10
108.76
20
7.82
30
0.00
0
POINT
8
3
10
108.41
20
9.43
30
0.00
0
POINT
8
3
10
108.05
20
11.05
30
0.00
0
POINT
8
3
10
107.70
20
12.67
30
0.00
0
POINT
8
3
10
107.34
20
14.29
30
0.00
0
POINT
8
3
10
106.98
20
15.91
30
0.00
0
POINT
8
3
10
106.41
20
17.76
30
0.00
0
POINT
8
3
10
105.83
20
19.62
30
0.00
0
POINT
8
3
10
105.24
20
21.47
30
0.00
0
POINT
8
3
10
104.65
20
23.33
30
0.00
0
POINT
8
3
10
104.01
20
24.87
30
0.00
0
POINT
8
3
10
103.37
20
26.42
30
0.00
0
POINT
8
3
10
102.72
20
27.97
30
0.00
0
POINT
8
3
10
102.06
20
29.52
30
0.00
0
POINT
8
3
10
100.91
20
30.97
30
0.00
0
POINT
8
3
10
99.74
20
32.41
30
0.00
0
POINT
8
3
10
98.55
20
33.86
30
0.00
0
POINT
8
3
10
97.35
20
35.30
30
0.00
0
POINT
8
3
10
96.63
20
36.75
30
0.00
0
POINT
8
3
10
95.91
20
38.21
30
0.00
0
POINT
8
3
10
95.18
20
39.67
30
0.00
0
POINT
8
3
10
94.46
20
41.11
30
0.00
0
POINT
8
3
10
93.18
20
42.27
30
0.00
0
POINT
8
3
10
91.89
20
43.43
30
0.00
0
POINT
8
3
10
90.61
20
44.59
30
0.00
0
POINT
8
3
10
89.31
20
45.76
30
0.00
0
POINT
8
3
10
88.00
20
46.93
30
0.00
0
POINT
8
3
10
86.69
20
47.80
30
0.00
0
POINT
8
3
10
85.33
20
48.65
30
0.00
0
POINT
8
3
10
83.96
20
49.49
30
0.00
0
POINT
8
3
10
82.58
20
50.34
30
0.00
0
POINT
8
3
10
81.39
20
51.57
30
0.00
0
POINT
8
3
10
80.20
20
52.79
30
0.00
0
POINT
8
3
10
79.00
20
54.00
30
0.00
0
POINT
8
2
10
77.83
20
55.19
30
0.00
0
POINT
8
3
10
76.24
20
55.54
30
0.00
0
POINT
8
3
10
74.65
20
55.89
30
0.00
0
POINT
8
3
10
73.06
20
56.25
30
0.00
0
POINT
8
3
10
71.47
20
56.60
30
0.00
0
POINT
8
3
10
69.85
20
57.05
30
0.00
0
POINT
8
3
10
68.24
20
57.50
30
0.00
0
POINT
8
3
10
66.62
20
57.94
30
0.00
0
POINT
8
3
10
64.99
20
58.38
30
0.00
0
POINT
8
3
10
63.20
20
59.23
30
0.00
0
POINT
8
3
10
61.45
20
60.00
30
0.00
0
POINT
8
3
10
59.70
20
60.76
30
0.00
0
POINT
8
3
10
57.81
20
61.19
30
0.00
0
POINT
8
3
10
55.91
20
61.63
30
0.00
0
POINT
8
3
10
54.01
20
62.07
30
0.00
0
POINT
8
3
10
52.07
20
61.65
30
0.00
0
POINT
8
3
10
50.13
20
61.24
30
0.00
0
POINT
8
3
10
48.19
20
60.82
30
0.00
0
POINT
8
3
10
46.26
20
60.41
30
0.00
0
POINT
8
3
10
44.67
20
59.99
30
0.00
0
POINT
8
3
10
43.08
20
59.56
30
0.00
0
POINT
8
3
10
41.49
20
59.14
30
0.00
0
POINT
8
3
10
39.90
20
58.72
30
0.00
0
POINT
8
3
10
38.02
20
58.33
30
0.00
0
POINT
8
3
10
36.22
20
57.79
30
0.00
0
POINT
8
3
10
34.41
20
57.26
30
0.00
0
POINT
8
3
10
32.97
20
56.58
30
0.00
0
POINT
8
3
10
31.53
20
55.90
30
0.00
0
POINT
8
3
10
30.11
20
55.19
30
0.00
0
POINT
8
3
10
28.73
20
54.41
30
0.00
0
POINT
8
3
10
27.35
20
53.64
30
0.00
0
POINT
8
3
10
25.98
20
52.86
30
0.00
0
POINT
8
3
10
24.60
20
52.07
30
0.00
0
POINT
8
3
10
23.23
20
50.87
30
0.00
0
POINT
8
3
10
21.86
20
49.68
30
0.00
0
POINT
8
3
10
20.49
20
48.49
30
0.00
0
POINT
8
3
10
19.13
20
47.29
30
0.00
0
POINT
8
3
10
17.79
20
46.18
30
0.00
0
POINT
8
3
10
16.45
20
45.07
30
0.00
0
POINT
8
3
10
15.12
20
43.95
30
0.00
0
POINT
8
3
10
13.78
20
42.84
30
0.00
0
POINT
8
3
10
12.63
20
41.59
30
0.00
0
POINT
8
3
10
11.48
20
40.34
30
0.00
0
POINT
8
3
10
10.34
20
39.09
30
0.00
0
POINT
8
3
10
9.05
20
37.72
30
0.00
0
POINT
8
3
10
7.79
20
36.31
30
0.00
0
POINT
8
3
10
6.56
20
34.89
30
0.00
0
POINT
8
3
10
5.57
20
33.69
30
0.00
0
POINT
8
3
10
4.59
20
32.48
30
0.00
0
POINT
8
3
10
3.59
20
31.28
30
0.00
0
POINT
8
3
10
2.59
20
30.10
30
0.00
0
POINT
8
3
10
1.95
20
28.66
30
0.00
0
POINT
8
3
10
1.31
20
27.23
30
0.00
0
POINT
8
3
10
0.65
20
25.79
30
0.00
0
POINT
8
2
10
0.00
20
24.37
30
0.00
0
POINT
8
3
10
1.70
20
23.47
30
0.00
0
POINT
8
3
10
3.39
20
22.57
30
0.00
0
POINT
8
3
10
5.11
20
21.65
30
0.00
0
POINT
8
3
10
6.80
20
20.76
30
0.00
0
POINT
8
3
10
8.30
20
19.97
30
0.00
0
POINT
8
3
10
9.79
20
19.18
30
0.00
0
POINT
8
3
10
11.29
20
18.38
30
0.00
0
POINT
8
3
10
12.85
20
17.58
30
0.00
0
POINT
8
3
10
14.38
20
16.84
30
0.00
0
POINT
8
3
10
16.02
20
16.15
30
0.00
0
POINT
8
3
10
17.65
20
15.46
30
0.00
0
POINT
8
3
10
19.34
20
14.78
30
0.00
0
POINT
8
3
10
21.01
20
14.17
30
0.00
0
POINT
8
3
10
22.68
20
13.55
30
0.00
0
POINT
8
3
10
24.32
20
12.88
30
0.00
0
POINT
8
3
10
25.96
20
12.21
30
0.00
0
POINT
8
3
10
27.65
20
11.59
30
0.00
0
POINT
8
3
10
29.33
20
10.98
30
0.00
0
POINT
8
3
10
31.00
20
10.38
30
0.00
0
POINT
8
3
10
32.62
20
9.84
30
0.00
0
POINT
8
3
10
34.29
20
9.33
30
0.00
0
POINT
8
3
10
35.95
20
8.85
30
0.00
0
POINT
8
3
10
37.61
20
8.36
30
0.00
0
POINT
8
3
10
39.26
20
7.87
30
0.00
0
POINT
8
3
10
41.16
20
7.33
30
0.00
0
POINT
8
3
10
43.06
20
6.79
30
0.00
0
POINT
8
3
10
44.97
20
6.26
30
0.00
0
POINT
8
3
10
46.88
20
5.75
30
0.00
0
POINT
8
3
10
48.70
20
5.36
30
0.00
0
POINT
8
3
10
50.53
20
4.98
30
0.00
0
POINT
8
3
10
52.36
20
4.59
30
0.00
0
POINT
8
3
10
54.19
20
4.22
30
0.00
0
POINT
8
3
10
56.13
20
3.88
30
0.00
0
POINT
8
3
10
58.08
20
3.54
30
0.00
0
POINT
8
3
10
60.03
20
3.20
30
0.00
0
POINT
8
3
10
62.00
20
2.90
30
0.00
0
POINT
8
3
10
64.00
20
2.61
30
0.00
0
POINT
8
3
10
65.99
20
2.33
30
0.00
0
POINT
8
3
10
67.99
20
2.06
30
0.00
0
POINT
8
3
10
69.99
20
1.84
30
0.00
0
POINT
8
3
10
72.02
20
1.66
30
0.00
0
POINT
8
3
10
74.02
20
1.49
30
0.00
0
POINT
8
3
10
76.04
20
1.35
30
0.00
0
POINT
8
3
10
78.06
20
1.23
30
0.00
0
POINT
8
3
10
79.68
20
1.09
30
0.00
0
POINT
8
3
10
81.30
20
0.94
30
0.00
0
POINT
8
3
10
82.95
20
0.80
30
0.00
0
POINT
8
3
10
84.58
20
0.73
30
0.00
0
POINT
8
3
10
86.19
20
0.66
30
0.00
0
POINT
8
3
10
88.17
20
0.68
30
0.00
0
POINT
8
3
10
90.16
20
0.70
30
0.00
0
POINT
8
3
10
92.12
20
0.73
30
0.00
0
POINT
8
3
10
94.10
20
0.77
30
0.00
0
POINT
8
3
10
95.99
20
0.68
30
0.00
0
POINT
8
3
10
97.86
20
0.60
30
0.00
0
POINT
8
3
10
99.74
20
0.51
30
0.00
0
POINT
8
3
10
101.62
20
0.42
30
0.00
0
POINT
8
3
10
103.43
20
0.32
30
0.00
0
POINT
8
3
10
105.25
20
0.21
30
0.00
0
POINT
8
3
10
107.06
20
0.11
30
0.00
0
LINE
8
7
10
24.53
20
34.68
30
0.00
11
90.36
21
21.90
31
0.00
0
TEXT
8
15
10
5.44
20
45.03
30
0.00
40
5.00
1
SHELL 1:1 OF THE BODY SURFACE - NOT A PATTERN
0
TEXT
8
15
10
5.44
20
41.03
30
0.00
40
5.00
1
No ease, no seam allowance, no grading
0
TEXT
8
15
10
5.44
20
37.03
30
0.00
40
5.00
1
Seam vs body: +4.36 mm (curvature, not error)
0
TEXT
8
15
10
5.44
20
33.03
30
0.00
40
5.00
1
Grain: default = body vertical, set by pattern maker
0
TEXT
8
15
10
5.44
20
29.03
30
0.00
40
5.00
1
Quantity 1,1 is a default, confirm
0
TEXT
8
15
10
5.44
20
25.03
30
0.00
40
5.00
1
Asset avatar_master.glb 8a7a5053a5e0
0
TEXT
8
15
10
5.44
20
21.03
30
0.00
40
5.00
1
Shares seam with CUP_PANEL_B: mismatch 0.03 mm
0
ENDBLK
8
0
0
BLOCK
8
0
2
CUP_PANEL_B
70
0
10
0.00
20
0.00
30
0.00
3
CUP_PANEL_B
0
TEXT
8
1
10
32.70
20
123.88
30
0.00
40
3.00
1
Piece Name: CUP_PANEL_B
0
TEXT
8
1
10
32.70
20
119.88
30
0.00
40
3.00
1
Quantity: 1,1
0
POLYLINE
8
1
66
1
70
1
10
0.00
20
0.00
30
0.00
0
VERTEX
8
1
10
58.38
20
111.88
30
0.00
0
VERTEX
8
1
10
56.76
20
111.37
30
0.00
0
VERTEX
8
1
10
55.13
20
110.86
30
0.00
0
VERTEX
8
1
10
53.50
20
110.34
30
0.00
0
VERTEX
8
1
10
51.86
20
109.82
30
0.00
0
VERTEX
8
1
10
49.87
20
109.51
30
0.00
0
VERTEX
8
1
10
47.88
20
109.20
30
0.00
0
VERTEX
8
1
10
45.90
20
108.82
30
0.00
0
VERTEX
8
1
10
44.00
20
108.27
30
0.00
0
VERTEX
8
1
10
42.11
20
107.71
30
0.00
0
VERTEX
8
1
10
40.22
20
107.15
30
0.00
0
VERTEX
8
1
10
38.33
20
106.59
30
0.00
0
VERTEX
8
1
10
36.75
20
105.93
30
0.00
0
VERTEX
8
1
10
35.17
20
105.27
30
0.00
0
VERTEX
8
1
10
33.57
20
104.60
30
0.00
0
VERTEX
8
1
10
32.01
20
103.91
30
0.00
0
VERTEX
8
1
10
30.44
20
103.22
30
0.00
0
VERTEX
8
1
10
28.88
20
102.42
30
0.00
0
VERTEX
8
1
10
27.31
20
101.62
30
0.00
0
VERTEX
8
1
10
25.76
20
100.82
30
0.00
0
VERTEX
8
1
10
24.21
20
100.02
30
0.00
0
VERTEX
8
1
10
22.66
20
99.21
30
0.00
0
VERTEX
8
1
10
20.89
20
98.90
30
0.00
0
VERTEX
8
1
10
19.11
20
98.58
30
0.00
0
VERTEX
8
1
10
17.33
20
98.27
30
0.00
0
VERTEX
8
1
10
15.57
20
97.94
30
0.00
0
VERTEX
8
1
10
14.33
20
96.45
30
0.00
0
VERTEX
8
1
10
13.10
20
94.96
30
0.00
0
VERTEX
8
1
10
11.86
20
93.47
30
0.00
0
VERTEX
8
1
10
10.63
20
91.99
30
0.00
0
VERTEX
8
1
10
9.50
20
90.43
30
0.00
0
VERTEX
8
1
10
8.36
20
88.87
30
0.00
0
VERTEX
8
1
10
7.22
20
87.32
30
0.00
0
VERTEX
8
1
10
6.09
20
85.77
30
0.00
0
VERTEX
8
1
10
5.32
20
84.27
30
0.00
0
VERTEX
8
1
10
4.55
20
82.78
30
0.00
0
VERTEX
8
1
10
3.78
20
81.28
30
0.00
0
VERTEX
8
1
10
3.02
20
79.78
30
0.00
0
VERTEX
8
1
10
2.54
20
78.32
30
0.00
0
VERTEX
8
1
10
2.07
20
76.86
30
0.00
0
VERTEX
8
1
10
1.60
20
75.40
30
0.00
0
VERTEX
8
1
10
1.13
20
73.94
30
0.00
0
VERTEX
8
1
10
0.86
20
72.43
30
0.00
0
VERTEX
8
1
10
0.59
20
70.92
30
0.00
0
VERTEX
8
1
10
0.32
20
69.42
30
0.00
0
VERTEX
8
1
10
0.05
20
67.91
30
0.00
0
VERTEX
8
1
10
0.04
20
65.96
30
0.00
0
VERTEX
8
1
10
0.02
20
64.02
30
0.00
0
VERTEX
8
1
10
0.00
20
62.07
30
0.00
0
VERTEX
8
1
10
0.02
20
60.11
30
0.00
0
VERTEX
8
1
10
0.11
20
58.44
30
0.00
0
VERTEX
8
1
10
0.21
20
56.77
30
0.00
0
VERTEX
8
1
10
0.32
20
55.10
30
0.00
0
VERTEX
8
1
10
0.45
20
53.43
30
0.00
0
VERTEX
8
1
10
0.59
20
51.76
30
0.00
0
VERTEX
8
1
10
0.90
20
49.81
30
0.00
0
VERTEX
8
1
10
1.26
20
47.84
30
0.00
0
VERTEX
8
1
10
1.62
20
45.89
30
0.00
0
VERTEX
8
1
10
1.98
20
43.94
30
0.00
0
VERTEX
8
1
10
2.54
20
42.16
30
0.00
0
VERTEX
8
1
10
3.11
20
40.38
30
0.00
0
VERTEX
8
1
10
3.69
20
38.59
30
0.00
0
VERTEX
8
1
10
4.27
20
36.82
30
0.00
0
VERTEX
8
1
10
5.06
20
35.16
30
0.00
0
VERTEX
8
1
10
5.85
20
33.50
30
0.00
0
VERTEX
8
1
10
6.64
20
31.84
30
0.00
0
VERTEX
8
1
10
7.44
20
30.19
30
0.00
0
VERTEX
8
1
10
8.57
20
28.51
30
0.00
0
VERTEX
8
1
10
9.70
20
26.83
30
0.00
0
VERTEX
8
1
10
10.83
20
25.15
30
0.00
0
VERTEX
8
1
10
11.96
20
23.48
30
0.00
0
VERTEX
8
1
10
13.09
20
22.26
30
0.00
0
VERTEX
8
1
10
14.22
20
21.04
30
0.00
0
VERTEX
8
1
10
15.35
20
19.82
30
0.00
0
VERTEX
8
1
10
16.48
20
18.60
30
0.00
0
VERTEX
8
1
10
17.61
20
17.38
30
0.00
0
VERTEX
8
1
10
18.86
20
16.33
30
0.00
0
VERTEX
8
1
10
20.14
20
15.30
30
0.00
0
VERTEX
8
1
10
21.42
20
14.26
30
0.00
0
VERTEX
8
1
10
22.69
20
13.22
30
0.00
0
VERTEX
8
1
10
24.25
20
12.15
30
0.00
0
VERTEX
8
1
10
25.80
20
11.11
30
0.00
0
VERTEX
8
1
10
27.36
20
10.07
30
0.00
0
VERTEX
8
1
10
28.92
20
9.03
30
0.00
0
VERTEX
8
1
10
30.39
20
8.25
30
0.00
0
VERTEX
8
1
10
31.86
20
7.48
30
0.00
0
VERTEX
8
1
10
33.34
20
6.72
30
0.00
0
VERTEX
8
1
10
34.81
20
5.95
30
0.00
0
VERTEX
8
1
10
36.28
20
5.19
30
0.00
0
VERTEX
8
1
10
37.90
20
4.43
30
0.00
0
VERTEX
8
1
10
39.52
20
3.67
30
0.00
0
VERTEX
8
1
10
41.13
20
2.91
30
0.00
0
VERTEX
8
1
10
42.74
20
2.15
30
0.00
0
VERTEX
8
1
10
44.53
20
1.78
30
0.00
0
VERTEX
8
1
10
46.31
20
1.41
30
0.00
0
VERTEX
8
1
10
48.10
20
1.03
30
0.00
0
VERTEX
8
1
10
49.89
20
0.67
30
0.00
0
VERTEX
8
1
10
51.83
20
0.51
30
0.00
0
VERTEX
8
1
10
53.77
20
0.35
30
0.00
0
VERTEX
8
1
10
55.71
20
0.19
30
0.00
0
VERTEX
8
1
10
57.65
20
0.00
30
0.00
0
VERTEX
8
1
10
58.03
20
1.78
30
0.00
0
VERTEX
8
1
10
58.41
20
3.56
30
0.00
0
VERTEX
8
1
10
58.79
20
5.35
30
0.00
0
VERTEX
8
1
10
59.16
20
7.13
30
0.00
0
VERTEX
8
1
10
59.52
20
8.98
30
0.00
0
VERTEX
8
1
10
59.89
20
10.83
30
0.00
0
VERTEX
8
1
10
60.25
20
12.68
30
0.00
0
VERTEX
8
1
10
60.61
20
14.54
30
0.00
0
VERTEX
8
1
10
60.86
20
16.51
30
0.00
0
VERTEX
8
1
10
61.10
20
18.45
30
0.00
0
VERTEX
8
1
10
61.31
20
20.43
30
0.00
0
VERTEX
8
1
10
61.51
20
22.40
30
0.00
0
VERTEX
8
1
10
61.77
20
24.00
30
0.00
0
VERTEX
8
1
10
62.02
20
25.60
30
0.00
0
VERTEX
8
1
10
62.25
20
27.22
30
0.00
0
VERTEX
8
1
10
62.47
20
28.83
30
0.00
0
VERTEX
8
1
10
62.68
20
30.44
30
0.00
0
VERTEX
8
1
10
62.89
20
32.46
30
0.00
0
VERTEX
8
1
10
63.10
20
34.48
30
0.00
0
VERTEX
8
1
10
63.30
20
36.50
30
0.00
0
VERTEX
8
1
10
63.50
20
38.52
30
0.00
0
VERTEX
8
1
10
63.74
20
40.51
30
0.00
0
VERTEX
8
1
10
63.95
20
42.52
30
0.00
0
VERTEX
8
1
10
64.15
20
44.53
30
0.00
0
VERTEX
8
1
10
64.35
20
46.53
30
0.00
0
VERTEX
8
1
10
64.53
20
48.49
30
0.00
0
VERTEX
8
1
10
64.67
20
50.46
30
0.00
0
VERTEX
8
1
10
64.82
20
52.44
30
0.00
0
VERTEX
8
1
10
64.96
20
54.41
30
0.00
0
VERTEX
8
1
10
65.09
20
56.25
30
0.00
0
VERTEX
8
1
10
65.19
20
58.12
30
0.00
0
VERTEX
8
1
10
65.29
20
59.98
30
0.00
0
VERTEX
8
1
10
65.40
20
61.85
30
0.00
0
VERTEX
8
1
10
65.36
20
63.83
30
0.00
0
VERTEX
8
1
10
65.30
20
65.80
30
0.00
0
VERTEX
8
1
10
65.24
20
67.77
30
0.00
0
VERTEX
8
1
10
65.17
20
69.75
30
0.00
0
VERTEX
8
1
10
65.03
20
71.47
30
0.00
0
VERTEX
8
1
10
64.89
20
73.19
30
0.00
0
VERTEX
8
1
10
64.75
20
74.91
30
0.00
0
VERTEX
8
1
10
64.60
20
76.65
30
0.00
0
VERTEX
8
1
10
64.39
20
78.36
30
0.00
0
VERTEX
8
1
10
64.21
20
80.12
30
0.00
0
VERTEX
8
1
10
64.03
20
81.89
30
0.00
0
VERTEX
8
1
10
63.84
20
83.69
30
0.00
0
VERTEX
8
1
10
63.61
20
85.45
30
0.00
0
VERTEX
8
1
10
63.38
20
87.21
30
0.00
0
VERTEX
8
1
10
63.08
20
88.97
30
0.00
0
VERTEX
8
1
10
62.78
20
90.72
30
0.00
0
VERTEX
8
1
10
62.36
20
92.50
30
0.00
0
VERTEX
8
1
10
61.94
20
94.23
30
0.00
0
VERTEX
8
1
10
61.53
20
95.96
30
0.00
0
VERTEX
8
1
10
61.22
20
97.63
30
0.00
0
VERTEX
8
1
10
60.90
20
99.32
30
0.00
0
VERTEX
8
1
10
60.56
20
100.99
30
0.00
0
VERTEX
8
1
10
60.23
20
102.65
30
0.00
0
VERTEX
8
1
10
59.90
20
104.32
30
0.00
0
VERTEX
8
1
10
59.51
20
106.19
30
0.00
0
VERTEX
8
1
10
59.13
20
108.11
30
0.00
0
VERTEX
8
1
10
58.75
20
110.00
30
0.00
0
SEQEND
8
1
0
POLYLINE
8
84
66
1
70
1
10
0.00
20
0.00
30
0.00
0
VERTEX
8
84
10
58.38
20
111.88
30
0.00
0
VERTEX
8
84
10
56.76
20
111.37
30
0.00
0
VERTEX
8
84
10
55.13
20
110.86
30
0.00
0
VERTEX
8
84
10
53.50
20
110.34
30
0.00
0
VERTEX
8
84
10
51.86
20
109.82
30
0.00
0
VERTEX
8
84
10
49.87
20
109.51
30
0.00
0
VERTEX
8
84
10
47.88
20
109.20
30
0.00
0
VERTEX
8
84
10
45.90
20
108.82
30
0.00
0
VERTEX
8
84
10
44.00
20
108.27
30
0.00
0
VERTEX
8
84
10
42.11
20
107.71
30
0.00
0
VERTEX
8
84
10
40.22
20
107.15
30
0.00
0
VERTEX
8
84
10
38.33
20
106.59
30
0.00
0
VERTEX
8
84
10
36.75
20
105.93
30
0.00
0
VERTEX
8
84
10
35.17
20
105.27
30
0.00
0
VERTEX
8
84
10
33.57
20
104.60
30
0.00
0
VERTEX
8
84
10
32.01
20
103.91
30
0.00
0
VERTEX
8
84
10
30.44
20
103.22
30
0.00
0
VERTEX
8
84
10
28.88
20
102.42
30
0.00
0
VERTEX
8
84
10
27.31
20
101.62
30
0.00
0
VERTEX
8
84
10
25.76
20
100.82
30
0.00
0
VERTEX
8
84
10
24.21
20
100.02
30
0.00
0
VERTEX
8
84
10
22.66
20
99.21
30
0.00
0
VERTEX
8
84
10
20.89
20
98.90
30
0.00
0
VERTEX
8
84
10
19.11
20
98.58
30
0.00
0
VERTEX
8
84
10
17.33
20
98.27
30
0.00
0
VERTEX
8
84
10
15.57
20
97.94
30
0.00
0
VERTEX
8
84
10
14.33
20
96.45
30
0.00
0
VERTEX
8
84
10
13.10
20
94.96
30
0.00
0
VERTEX
8
84
10
11.86
20
93.47
30
0.00
0
VERTEX
8
84
10
10.63
20
91.99
30
0.00
0
VERTEX
8
84
10
9.50
20
90.43
30
0.00
0
VERTEX
8
84
10
8.36
20
88.87
30
0.00
0
VERTEX
8
84
10
7.22
20
87.32
30
0.00
0
VERTEX
8
84
10
6.09
20
85.77
30
0.00
0
VERTEX
8
84
10
5.32
20
84.27
30
0.00
0
VERTEX
8
84
10
4.55
20
82.78
30
0.00
0
VERTEX
8
84
10
3.78
20
81.28
30
0.00
0
VERTEX
8
84
10
3.02
20
79.78
30
0.00
0
VERTEX
8
84
10
2.54
20
78.32
30
0.00
0
VERTEX
8
84
10
2.07
20
76.86
30
0.00
0
VERTEX
8
84
10
1.60
20
75.40
30
0.00
0
VERTEX
8
84
10
1.13
20
73.94
30
0.00
0
VERTEX
8
84
10
0.86
20
72.43
30
0.00
0
VERTEX
8
84
10
0.59
20
70.92
30
0.00
0
VERTEX
8
84
10
0.32
20
69.42
30
0.00
0
VERTEX
8
84
10
0.05
20
67.91
30
0.00
0
VERTEX
8
84
10
0.04
20
65.96
30
0.00
0
VERTEX
8
84
10
0.02
20
64.02
30
0.00
0
VERTEX
8
84
10
0.00
20
62.07
30
0.00
0
VERTEX
8
84
10
0.02
20
60.11
30
0.00
0
VERTEX
8
84
10
0.11
20
58.44
30
0.00
0
VERTEX
8
84
10
0.21
20
56.77
30
0.00
0
VERTEX
8
84
10
0.32
20
55.10
30
0.00
0
VERTEX
8
84
10
0.45
20
53.43
30
0.00
0
VERTEX
8
84
10
0.59
20
51.76
30
0.00
0
VERTEX
8
84
10
0.90
20
49.81
30
0.00
0
VERTEX
8
84
10
1.26
20
47.84
30
0.00
0
VERTEX
8
84
10
1.62
20
45.89
30
0.00
0
VERTEX
8
84
10
1.98
20
43.94
30
0.00
0
VERTEX
8
84
10
2.54
20
42.16
30
0.00
0
VERTEX
8
84
10
3.11
20
40.38
30
0.00
0
VERTEX
8
84
10
3.69
20
38.59
30
0.00
0
VERTEX
8
84
10
4.27
20
36.82
30
0.00
0
VERTEX
8
84
10
5.06
20
35.16
30
0.00
0
VERTEX
8
84
10
5.85
20
33.50
30
0.00
0
VERTEX
8
84
10
6.64
20
31.84
30
0.00
0
VERTEX
8
84
10
7.44
20
30.19
30
0.00
0
VERTEX
8
84
10
8.57
20
28.51
30
0.00
0
VERTEX
8
84
10
9.70
20
26.83
30
0.00
0
VERTEX
8
84
10
10.83
20
25.15
30
0.00
0
VERTEX
8
84
10
11.96
20
23.48
30
0.00
0
VERTEX
8
84
10
13.09
20
22.26
30
0.00
0
VERTEX
8
84
10
14.22
20
21.04
30
0.00
0
VERTEX
8
84
10
15.35
20
19.82
30
0.00
0
VERTEX
8
84
10
16.48
20
18.60
30
0.00
0
VERTEX
8
84
10
17.61
20
17.38
30
0.00
0
VERTEX
8
84
10
18.86
20
16.33
30
0.00
0
VERTEX
8
84
10
20.14
20
15.30
30
0.00
0
VERTEX
8
84
10
21.42
20
14.26
30
0.00
0
VERTEX
8
84
10
22.69
20
13.22
30
0.00
0
VERTEX
8
84
10
24.25
20
12.15
30
0.00
0
VERTEX
8
84
10
25.80
20
11.11
30
0.00
0
VERTEX
8
84
10
27.36
20
10.07
30
0.00
0
VERTEX
8
84
10
28.92
20
9.03
30
0.00
0
VERTEX
8
84
10
30.39
20
8.25
30
0.00
0
VERTEX
8
84
10
31.86
20
7.48
30
0.00
0
VERTEX
8
84
10
33.34
20
6.72
30
0.00
0
VERTEX
8
84
10
34.81
20
5.95
30
0.00
0
VERTEX
8
84
10
36.28
20
5.19
30
0.00
0
VERTEX
8
84
10
37.90
20
4.43
30
0.00
0
VERTEX
8
84
10
39.52
20
3.67
30
0.00
0
VERTEX
8
84
10
41.13
20
2.91
30
0.00
0
VERTEX
8
84
10
42.74
20
2.15
30
0.00
0
VERTEX
8
84
10
44.53
20
1.78
30
0.00
0
VERTEX
8
84
10
46.31
20
1.41
30
0.00
0
VERTEX
8
84
10
48.10
20
1.03
30
0.00
0
VERTEX
8
84
10
49.89
20
0.67
30
0.00
0
VERTEX
8
84
10
51.83
20
0.51
30
0.00
0
VERTEX
8
84
10
53.77
20
0.35
30
0.00
0
VERTEX
8
84
10
55.71
20
0.19
30
0.00
0
VERTEX
8
84
10
57.65
20
0.00
30
0.00
0
VERTEX
8
84
10
58.03
20
1.78
30
0.00
0
VERTEX
8
84
10
58.41
20
3.56
30
0.00
0
VERTEX
8
84
10
58.79
20
5.35
30
0.00
0
VERTEX
8
84
10
59.16
20
7.13
30
0.00
0
VERTEX
8
84
10
59.52
20
8.98
30
0.00
0
VERTEX
8
84
10
59.89
20
10.83
30
0.00
0
VERTEX
8
84
10
60.25
20
12.68
30
0.00
0
VERTEX
8
84
10
60.61
20
14.54
30
0.00
0
VERTEX
8
84
10
60.86
20
16.51
30
0.00
0
VERTEX
8
84
10
61.10
20
18.45
30
0.00
0
VERTEX
8
84
10
61.31
20
20.43
30
0.00
0
VERTEX
8
84
10
61.51
20
22.40
30
0.00
0
VERTEX
8
84
10
61.77
20
24.00
30
0.00
0
VERTEX
8
84
10
62.02
20
25.60
30
0.00
0
VERTEX
8
84
10
62.25
20
27.22
30
0.00
0
VERTEX
8
84
10
62.47
20
28.83
30
0.00
0
VERTEX
8
84
10
62.68
20
30.44
30
0.00
0
VERTEX
8
84
10
62.89
20
32.46
30
0.00
0
VERTEX
8
84
10
63.10
20
34.48
30
0.00
0
VERTEX
8
84
10
63.30
20
36.50
30
0.00
0
VERTEX
8
84
10
63.50
20
38.52
30
0.00
0
VERTEX
8
84
10
63.74
20
40.51
30
0.00
0
VERTEX
8
84
10
63.95
20
42.52
30
0.00
0
VERTEX
8
84
10
64.15
20
44.53
30
0.00
0
VERTEX
8
84
10
64.35
20
46.53
30
0.00
0
VERTEX
8
84
10
64.53
20
48.49
30
0.00
0
VERTEX
8
84
10
64.67
20
50.46
30
0.00
0
VERTEX
8
84
10
64.82
20
52.44
30
0.00
0
VERTEX
8
84
10
64.96
20
54.41
30
0.00
0
VERTEX
8
84
10
65.09
20
56.25
30
0.00
0
VERTEX
8
84
10
65.19
20
58.12
30
0.00
0
VERTEX
8
84
10
65.29
20
59.98
30
0.00
0
VERTEX
8
84
10
65.40
20
61.85
30
0.00
0
VERTEX
8
84
10
65.36
20
63.83
30
0.00
0
VERTEX
8
84
10
65.30
20
65.80
30
0.00
0
VERTEX
8
84
10
65.24
20
67.77
30
0.00
0
VERTEX
8
84
10
65.17
20
69.75
30
0.00
0
VERTEX
8
84
10
65.03
20
71.47
30
0.00
0
VERTEX
8
84
10
64.89
20
73.19
30
0.00
0
VERTEX
8
84
10
64.75
20
74.91
30
0.00
0
VERTEX
8
84
10
64.60
20
76.65
30
0.00
0
VERTEX
8
84
10
64.39
20
78.36
30
0.00
0
VERTEX
8
84
10
64.21
20
80.12
30
0.00
0
VERTEX
8
84
10
64.03
20
81.89
30
0.00
0
VERTEX
8
84
10
63.84
20
83.69
30
0.00
0
VERTEX
8
84
10
63.61
20
85.45
30
0.00
0
VERTEX
8
84
10
63.38
20
87.21
30
0.00
0
VERTEX
8
84
10
63.08
20
88.97
30
0.00
0
VERTEX
8
84
10
62.78
20
90.72
30
0.00
0
VERTEX
8
84
10
62.36
20
92.50
30
0.00
0
VERTEX
8
84
10
61.94
20
94.23
30
0.00
0
VERTEX
8
84
10
61.53
20
95.96
30
0.00
0
VERTEX
8
84
10
61.22
20
97.63
30
0.00
0
VERTEX
8
84
10
60.90
20
99.32
30
0.00
0
VERTEX
8
84
10
60.56
20
100.99
30
0.00
0
VERTEX
8
84
10
60.23
20
102.65
30
0.00
0
VERTEX
8
84
10
59.90
20
104.32
30
0.00
0
VERTEX
8
84
10
59.51
20
106.19
30
0.00
0
VERTEX
8
84
10
59.13
20
108.11
30
0.00
0
VERTEX
8
84
10
58.75
20
110.00
30
0.00
0
SEQEND
8
84
0
POINT
8
2
10
58.38
20
111.88
30
0.00
0
POINT
8
3
10
56.76
20
111.37
30
0.00
0
POINT
8
3
10
55.13
20
110.86
30
0.00
0
POINT
8
3
10
53.50
20
110.34
30
0.00
0
POINT
8
3
10
51.86
20
109.82
30
0.00
0
POINT
8
3
10
49.87
20
109.51
30
0.00
0
POINT
8
3
10
47.88
20
109.20
30
0.00
0
POINT
8
3
10
45.90
20
108.82
30
0.00
0
POINT
8
3
10
44.00
20
108.27
30
0.00
0
POINT
8
3
10
42.11
20
107.71
30
0.00
0
POINT
8
3
10
40.22
20
107.15
30
0.00
0
POINT
8
3
10
38.33
20
106.59
30
0.00
0
POINT
8
3
10
36.75
20
105.93
30
0.00
0
POINT
8
3
10
35.17
20
105.27
30
0.00
0
POINT
8
3
10
33.57
20
104.60
30
0.00
0
POINT
8
3
10
32.01
20
103.91
30
0.00
0
POINT
8
3
10
30.44
20
103.22
30
0.00
0
POINT
8
3
10
28.88
20
102.42
30
0.00
0
POINT
8
3
10
27.31
20
101.62
30
0.00
0
POINT
8
3
10
25.76
20
100.82
30
0.00
0
POINT
8
3
10
24.21
20
100.02
30
0.00
0
POINT
8
3
10
22.66
20
99.21
30
0.00
0
POINT
8
3
10
20.89
20
98.90
30
0.00
0
POINT
8
3
10
19.11
20
98.58
30
0.00
0
POINT
8
3
10
17.33
20
98.27
30
0.00
0
POINT
8
2
10
15.57
20
97.94
30
0.00
0
POINT
8
3
10
14.33
20
96.45
30
0.00
0
POINT
8
3
10
13.10
20
94.96
30
0.00
0
POINT
8
3
10
11.86
20
93.47
30
0.00
0
POINT
8
3
10
10.63
20
91.99
30
0.00
0
POINT
8
3
10
9.50
20
90.43
30
0.00
0
POINT
8
3
10
8.36
20
88.87
30
0.00
0
POINT
8
3
10
7.22
20
87.32
30
0.00
0
POINT
8
3
10
6.09
20
85.77
30
0.00
0
POINT
8
3
10
5.32
20
84.27
30
0.00
0
POINT
8
3
10
4.55
20
82.78
30
0.00
0
POINT
8
3
10
3.78
20
81.28
30
0.00
0
POINT
8
3
10
3.02
20
79.78
30
0.00
0
POINT
8
3
10
2.54
20
78.32
30
0.00
0
POINT
8
3
10
2.07
20
76.86
30
0.00
0
POINT
8
3
10
1.60
20
75.40
30
0.00
0
POINT
8
3
10
1.13
20
73.94
30
0.00
0
POINT
8
3
10
0.86
20
72.43
30
0.00
0
POINT
8
3
10
0.59
20
70.92
30
0.00
0
POINT
8
3
10
0.32
20
69.42
30
0.00
0
POINT
8
3
10
0.05
20
67.91
30
0.00
0
POINT
8
3
10
0.04
20
65.96
30
0.00
0
POINT
8
3
10
0.02
20
64.02
30
0.00
0
POINT
8
3
10
0.00
20
62.07
30
0.00
0
POINT
8
3
10
0.02
20
60.11
30
0.00
0
POINT
8
3
10
0.11
20
58.44
30
0.00
0
POINT
8
3
10
0.21
20
56.77
30
0.00
0
POINT
8
3
10
0.32
20
55.10
30
0.00
0
POINT
8
3
10
0.45
20
53.43
30
0.00
0
POINT
8
3
10
0.59
20
51.76
30
0.00
0
POINT
8
3
10
0.90
20
49.81
30
0.00
0
POINT
8
3
10
1.26
20
47.84
30
0.00
0
POINT
8
3
10
1.62
20
45.89
30
0.00
0
POINT
8
3
10
1.98
20
43.94
30
0.00
0
POINT
8
3
10
2.54
20
42.16
30
0.00
0
POINT
8
3
10
3.11
20
40.38
30
0.00
0
POINT
8
3
10
3.69
20
38.59
30
0.00
0
POINT
8
3
10
4.27
20
36.82
30
0.00
0
POINT
8
3
10
5.06
20
35.16
30
0.00
0
POINT
8
3
10
5.85
20
33.50
30
0.00
0
POINT
8
3
10
6.64
20
31.84
30
0.00
0
POINT
8
3
10
7.44
20
30.19
30
0.00
0
POINT
8
3
10
8.57
20
28.51
30
0.00
0
POINT
8
3
10
9.70
20
26.83
30
0.00
0
POINT
8
3
10
10.83
20
25.15
30
0.00
0
POINT
8
3
10
11.96
20
23.48
30
0.00
0
POINT
8
3
10
13.09
20
22.26
30
0.00
0
POINT
8
3
10
14.22
20
21.04
30
0.00
0
POINT
8
3
10
15.35
20
19.82
30
0.00
0
POINT
8
3
10
16.48
20
18.60
30
0.00
0
POINT
8
3
10
17.61
20
17.38
30
0.00
0
POINT
8
3
10
18.86
20
16.33
30
0.00
0
POINT
8
3
10
20.14
20
15.30
30
0.00
0
POINT
8
3
10
21.42
20
14.26
30
0.00
0
POINT
8
3
10
22.69
20
13.22
30
0.00
0
POINT
8
3
10
24.25
20
12.15
30
0.00
0
POINT
8
3
10
25.80
20
11.11
30
0.00
0
POINT
8
3
10
27.36
20
10.07
30
0.00
0
POINT
8
3
10
28.92
20
9.03
30
0.00
0
POINT
8
3
10
30.39
20
8.25
30
0.00
0
POINT
8
3
10
31.86
20
7.48
30
0.00
0
POINT
8
3
10
33.34
20
6.72
30
0.00
0
POINT
8
3
10
34.81
20
5.95
30
0.00
0
POINT
8
3
10
36.28
20
5.19
30
0.00
0
POINT
8
3
10
37.90
20
4.43
30
0.00
0
POINT
8
3
10
39.52
20
3.67
30
0.00
0
POINT
8
3
10
41.13
20
2.91
30
0.00
0
POINT
8
3
10
42.74
20
2.15
30
0.00
0
POINT
8
3
10
44.53
20
1.78
30
0.00
0
POINT
8
3
10
46.31
20
1.41
30
0.00
0
POINT
8
3
10
48.10
20
1.03
30
0.00
0
POINT
8
3
10
49.89
20
0.67
30
0.00
0
POINT
8
3
10
51.83
20
0.51
30
0.00
0
POINT
8
3
10
53.77
20
0.35
30
0.00
0
POINT
8
3
10
55.71
20
0.19
30
0.00
0
POINT
8
2
10
57.65
20
0.00
30
0.00
0
POINT
8
3
10
58.03
20
1.78
30
0.00
0
POINT
8
3
10
58.41
20
3.56
30
0.00
0
POINT
8
3
10
58.79
20
5.35
30
0.00
0
POINT
8
3
10
59.16
20
7.13
30
0.00
0
POINT
8
3
10
59.52
20
8.98
30
0.00
0
POINT
8
3
10
59.89
20
10.83
30
0.00
0
POINT
8
3
10
60.25
20
12.68
30
0.00
0
POINT
8
3
10
60.61
20
14.54
30
0.00
0
POINT
8
3
10
60.86
20
16.51
30
0.00
0
POINT
8
3
10
61.10
20
18.45
30
0.00
0
POINT
8
3
10
61.31
20
20.43
30
0.00
0
POINT
8
3
10
61.51
20
22.40
30
0.00
0
POINT
8
3
10
61.77
20
24.00
30
0.00
0
POINT
8
3
10
62.02
20
25.60
30
0.00
0
POINT
8
3
10
62.25
20
27.22
30
0.00
0
POINT
8
3
10
62.47
20
28.83
30
0.00
0
POINT
8
3
10
62.68
20
30.44
30
0.00
0
POINT
8
3
10
62.89
20
32.46
30
0.00
0
POINT
8
3
10
63.10
20
34.48
30
0.00
0
POINT
8
3
10
63.30
20
36.50
30
0.00
0
POINT
8
3
10
63.50
20
38.52
30
0.00
0
POINT
8
3
10
63.74
20
40.51
30
0.00
0
POINT
8
3
10
63.95
20
42.52
30
0.00
0
POINT
8
3
10
64.15
20
44.53
30
0.00
0
POINT
8
3
10
64.35
20
46.53
30
0.00
0
POINT
8
3
10
64.53
20
48.49
30
0.00
0
POINT
8
3
10
64.67
20
50.46
30
0.00
0
POINT
8
3
10
64.82
20
52.44
30
0.00
0
POINT
8
3
10
64.96
20
54.41
30
0.00
0
POINT
8
3
10
65.09
20
56.25
30
0.00
0
POINT
8
3
10
65.19
20
58.12
30
0.00
0
POINT
8
3
10
65.29
20
59.98
30
0.00
0
POINT
8
3
10
65.40
20
61.85
30
0.00
0
POINT
8
3
10
65.36
20
63.83
30
0.00
0
POINT
8
3
10
65.30
20
65.80
30
0.00
0
POINT
8
3
10
65.24
20
67.77
30
0.00
0
POINT
8
3
10
65.17
20
69.75
30
0.00
0
POINT
8
3
10
65.03
20
71.47
30
0.00
0
POINT
8
3
10
64.89
20
73.19
30
0.00
0
POINT
8
3
10
64.75
20
74.91
30
0.00
0
POINT
8
3
10
64.60
20
76.65
30
0.00
0
POINT
8
3
10
64.39
20
78.36
30
0.00
0
POINT
8
3
10
64.21
20
80.12
30
0.00
0
POINT
8
3
10
64.03
20
81.89
30
0.00
0
POINT
8
3
10
63.84
20
83.69
30
0.00
0
POINT
8
3
10
63.61
20
85.45
30
0.00
0
POINT
8
3
10
63.38
20
87.21
30
0.00
0
POINT
8
3
10
63.08
20
88.97
30
0.00
0
POINT
8
3
10
62.78
20
90.72
30
0.00
0
POINT
8
3
10
62.36
20
92.50
30
0.00
0
POINT
8
3
10
61.94
20
94.23
30
0.00
0
POINT
8
3
10
61.53
20
95.96
30
0.00
0
POINT
8
3
10
61.22
20
97.63
30
0.00
0
POINT
8
3
10
60.90
20
99.32
30
0.00
0
POINT
8
3
10
60.56
20
100.99
30
0.00
0
POINT
8
3
10
60.23
20
102.65
30
0.00
0
POINT
8
3
10
59.90
20
104.32
30
0.00
0
POINT
8
3
10
59.51
20
106.19
30
0.00
0
POINT
8
3
10
59.13
20
108.11
30
0.00
0
POINT
8
3
10
58.75
20
110.00
30
0.00
0
LINE
8
7
10
36.26
20
90.82
30
0.00
11
37.09
21
22.52
31
0.00
0
TEXT
8
15
10
3.27
20
69.94
30
0.00
40
5.00
1
SHELL 1:1 OF THE BODY SURFACE - NOT A PATTERN
0
TEXT
8
15
10
3.27
20
65.94
30
0.00
40
5.00
1
No ease, no seam allowance, no grading
0
TEXT
8
15
10
3.27
20
61.94
30
0.00
40
5.00
1
Seam vs body: +4.43 mm (curvature, not error)
0
TEXT
8
15
10
3.27
20
57.94
30
0.00
40
5.00
1
Grain: default = body vertical, set by pattern maker
0
TEXT
8
15
10
3.27
20
53.94
30
0.00
40
5.00
1
Quantity 1,1 is a default, confirm
0
TEXT
8
15
10
3.27
20
49.94
30
0.00
40
5.00
1
Asset avatar_master.glb 8a7a5053a5e0
0
TEXT
8
15
10
3.27
20
45.94
30
0.00
40
5.00
1
Shares seam with CUP_PANEL_A: mismatch 0.03 mm
0
ENDBLK
8
0
0
ENDSEC
0
SECTION
2
ENTITIES
0
TEXT
8
1
10
0.00
20
0.00
30
0.00
40
3.00
1
Style Name: AVATAR_MASTER_DRAFT
0
TEXT
8
1
10
0.00
20
-4.00
30
0.00
40
3.00
1
Creation Date: 05-09-2026
0
TEXT
8
1
10
0.00
20
-8.00
30
0.00
40
3.00
1
Creation Time: 00:00
0
TEXT
8
1
10
0.00
20
-12.00
30
0.00
40
3.00
1
Author: Crossian;3d-avatar-flatten;0.1.0
0
TEXT
8
1
10
0.00
20
-16.00
30
0.00
40
3.00
1
Sample Size: UNGRADED
0
TEXT
8
1
10
0.00
20
-20.00
30
0.00
40
3.00
1
Grade Rule Table: NONE
0
TEXT
8
1
10
0.00
20
-24.00
30
0.00
40
3.00
1
Units: METRIC
0
TEXT
8
1
10
0.00
20
-28.00
30
0.00
40
3.00
1
ASTM/D13 Proposal 1 Version: D6673-10
0
TEXT
8
1
10
0.00
20
-32.00
30
0.00
40
3.00
1
Curve Tolerance: 0.01
0
INSERT
8
1
2
CUP_PANEL_A
10
120.00
20
0.00
30
0.00
0
INSERT
8
1
2
CUP_PANEL_B
10
258.88
20
0.00
30
0.00
0
ENDSEC
0
EOF
